<?xml version="1.0" standalone="no"?>
<!DOCTYPE svg PUBLIC "-//W3C//DTD SVG 1.1//EN" "http://www.w3.org/Graphics/SVG/1.1/DTD/svg11.dtd" >
<svg>
<metadata>
Created by FontForge 20120731 at Mon Oct 24 23:49:35 2016
 By ,,,
URW Software, Copyright 1994 by URW
</metadata>
<defs>
<font id="BodoniAntT-Ligh" horiz-adv-x="1024" >
  <font-face 
    font-family="Bodoni Antiqua URW Light"
    font-weight="400"
    font-stretch="normal"
    units-per-em="2048"
    panose-1="2 2 6 3 7 5 6 2 3 3"
    ascent="1474"
    descent="-574"
    x-height="792"
    cap-height="1365"
    bbox="-225 -573 2005 1759"
    underline-thickness="93"
    underline-position="-181"
    unicode-range="U+0020-F002"
  />
<missing-glyph horiz-adv-x="512" 
d="M51 0v1365h410v-1365h-410zM410 51v1263h-308v-1263h308z" />
    <glyph glyph-name=".notdef" horiz-adv-x="512" 
d="M51 0v1365h410v-1365h-410zM410 51v1263h-308v-1263h308z" />
    <glyph glyph-name="glyph1" horiz-adv-x="0" 
 />
    <glyph glyph-name="glyph2" horiz-adv-x="512" 
 />
    <glyph glyph-name="space" unicode=" " horiz-adv-x="512" 
 />
    <glyph glyph-name="exclam" unicode="!" horiz-adv-x="560" 
d="M264 402q-3 130 -9 248q-3 140 -37 331l-36 200q-6 31 -6 61q0 43 16 78q30 65 88 65t88 -65q16 -35 16 -78q0 -31 -6 -61l-36 -200q-20 -111 -28.5 -214.5t-15.5 -319.5l-1 -45h-33zM281 218q47 0 81 -34t34 -82t-34 -82t-82 -34t-82 34t-34 82q0 49 34 82q35 34 83 34z
" />
    <glyph glyph-name="quotedbl" unicode="&#x22;" horiz-adv-x="590" 
d="M180 845h-44l-47 334q-7 48 -7 85q0 50 19 84q22 37 55 37q38 0 61 -41q17 -32 17 -79q0 -32 -8 -86zM454 845h-44l-46 334q-7 47 -7 85q0 50 19 84q22 37 55 37q38 0 61 -41q17 -32 17 -79q0 -30 -8 -86z" />
    <glyph glyph-name="numbersign" unicode="#" 
d="M425 906h241l59 418h124l-59 -418h178v-51h-185l-52 -368h178v-51h-185l-61 -436h-124l61 436h-241l-61 -436h-124l61 436h-179v51h186l52 368h-179v51h186l59 418h124zM418 855l-52 -368h241l52 368h-241z" />
    <glyph glyph-name="dollar" unicode="$" 
d="M531 810l138 -71q107 -55 162 -119q74 -87 74 -206q0 -111 -55 -210q-71 -127 -201 -178q-55 -20 -118 -24v-182h-60v182q-158 14 -270 95q-87 63 -116 154q-10 32 -10 63q0 49 25 88q29 44 74 44q48 0 74 -46q22 -38 22 -92q0 -16 -1 -36q-2 -35 -2 -52q0 -162 204 -178
v564l-120 63q-241 127 -241 330q0 131 89 235q96 111 272 132v168h60v-166q168 -2 285 -95q81 -64 81 -157q0 -26 -9 -51q-21 -56 -71 -56q-68 0 -94 67q-13 37 -16 114q-2 66 -35 95q-48 39 -141 42v-517zM471 841v484q-81 -7 -136 -41q-105 -64 -105 -175q0 -144 176 -234
zM531 43q94 9 156 57q51 39 80 98q25 52 25 104q0 134 -162 220l-99 52v-531z" />
    <glyph glyph-name="percent" unicode="%" horiz-adv-x="1407" 
d="M337 1336q104 0 181 -89q93 -108 93 -253q0 -95 -47 -184q-83 -157 -230 -157q-106 0 -183 90q-93 107 -93 252q0 95 48 184q82 157 231 157zM198 1066v-142q0 -141 35 -189q32 -44 101 -44q76 0 108 53q29 48 29 180v142q0 141 -35 188q-32 44 -102 44q-75 0 -107 -53
q-29 -48 -29 -179zM1041 1324l-614 -1324h-61l615 1324h60zM1076 671q104 0 181 -90q93 -107 93 -252q0 -95 -47 -184q-83 -157 -230 -157q-107 0 -184 90q-93 107 -93 252q0 95 47 184q84 157 233 157zM936 401v-143q0 -141 35 -188q33 -44 102 -44q76 0 108 52
q29 49 29 180v143q0 141 -35 188q-33 44 -102 44q-76 0 -108 -53q-29 -48 -29 -179z" />
    <glyph glyph-name="ampersand" unicode="&#x26;" horiz-adv-x="1216" 
d="M847 0l-79 112q-144 -133 -349 -133q-156 0 -241 82q-44 41 -70 102.5t-26 122.5q0 142 120 245q67 57 208 127l-76 120q-56 87 -56 149q0 86 70 139q80 62 211 62q102 0 174 -44q82 -50 82 -143q0 -79 -62 -139q-56 -53 -187 -106l281 -428q85 101 113 271q7 53 7 119
h-168v38h363v-38h-152q-5 -141 -33 -232q-27 -85 -101 -195l127 -193h159v-38h-315zM548 723q69 25 96 54q54 58 54 167q0 143 -136 143q-154 0 -154 -96q0 -38 23 -82q11 -20 46 -75zM430 626q-86 -40 -134 -79q-71 -58 -71 -127q0 -96 88 -233q92 -144 219 -144
q101 0 214 103z" />
    <glyph glyph-name="quotesingle" unicode="'" horiz-adv-x="316" 
d="M180 845h-44l-47 334q-7 48 -7 85q0 50 19 84q22 37 55 37q38 0 61 -41q17 -32 17 -79q0 -32 -8 -86z" />
    <glyph glyph-name="parenleft" unicode="(" horiz-adv-x="542" 
d="M474 1360q-88 -153 -135 -277q-101 -271 -101 -585t101 -585q46 -122 135 -277l-26 -19q-182 229 -276 453t-94 428q0 284 185 608q80 141 185 273z" />
    <glyph glyph-name="parenright" unicode=")" horiz-adv-x="542" 
d="M68 1360l26 19q181 -227 275.5 -452t94.5 -429q0 -284 -185 -608q-79 -140 -185 -273l-26 19q89 155 135 277q101 271 101 585t-101 585q-47 124 -135 277z" />
    <glyph glyph-name="asterisk" unicode="*" 
d="M503 1043l-49 212q-11 44 -11 60q0 35 20 52q19 18 47 18q33 0 53 -23q15 -16 15 -44q0 -16 -10 -63l-47 -212q17 -5 26 -20l187 114q56 33 83 33q22 0 39 -16q24 -22 24 -55q0 -38 -33 -56q-20 -10 -78 -15l-216 -22q-1 -17 -10 -30l165 -143q61 -52 61 -85
q0 -24 -19 -44q-22 -25 -54 -25q-28 0 -50 28q-11 13 -29 59l-88 200q-11 -4 -17 -4q-7 0 -16 3l-84 -201q-19 -45 -30 -59q-21 -28 -50 -28q-37 0 -60 30q-13 18 -13 40q0 18 13 37q10 15 48 47l162 144q-11 13 -11 32l-217 18q-62 5 -82 18q-28 17 -28 52q0 34 24 56
q18 16 39 16q26 0 82 -34l187 -109q10 14 27 19z" />
    <glyph glyph-name="plus" unicode="+" 
d="M481 632h-376v61h376v363h62v-363h376v-61h-376v-363h-62v363z" />
    <glyph glyph-name="comma" unicode="," horiz-adv-x="505" 
d="M284 114q1 -17 1 -30q0 -46 -28 -74q-23 -24 -59 -24q-43 0 -68 31q-25 32 -25 82q0 51 29 86q35 44 97 44q73 0 123 -61q46 -58 46 -144q0 -169 -188 -335l-25 23q80 81 117 138q48 75 48 145q0 83 -68 119z" />
    <glyph glyph-name="hyphen" unicode="-" horiz-adv-x="387" 
d="M387 471v-123h-387v123h387z" />
    <glyph glyph-name="period" unicode="." horiz-adv-x="505" 
d="M254 218q47 0 81 -34t34 -82t-34 -82t-82 -34t-82 34t-34 82q0 49 34 82q35 34 83 34z" />
    <glyph glyph-name="slash" unicode="/" horiz-adv-x="836" 
d="M761 1365l-733 -1734h-109l732 1734h110z" />
    <glyph glyph-name="zero" unicode="0" 
d="M515 1345q159 0 279 -178q61 -92 100 -218q44 -142 44 -287q0 -191 -74 -369q-70 -171 -177 -252q-80 -61 -175 -61q-163 0 -283 178q-62 92 -100 218q-44 143 -44 287q0 190 74 369q129 313 356 313zM276 810v-296q0 -295 59 -395q57 -98 177 -98q130 0 186 116
q49 101 49 377v296q0 296 -59 396q-57 98 -176 98q-131 0 -187 -116q-49 -102 -49 -378z" />
    <glyph glyph-name="one" unicode="1" 
d="M630 1324v-1286h216v-38h-614v38h234v1180q0 36 -7 44q-9 10 -39 10h-188v33z" />
    <glyph glyph-name="two" unicode="2" 
d="M883 0h-790v94l323 338q155 163 220 278q58 104 58 236q0 156 -69 250q-74 101 -195 101q-100 0 -176 -71q-73 -68 -73 -157q0 -47 28 -47q4 0 37 12q17 6 35 6q37 0 63 -25q27 -27 27 -65t-23 -65q-25 -28 -70 -28q-65 0 -104 57q-37 53 -37 127q0 130 99 216
q101 88 260 88q169 0 272 -90q49 -43 79.5 -110.5t30.5 -134.5q0 -125 -109 -271q-52 -70 -105 -123l-118 -119l-330 -340h465q61 0 95 9q49 11 66 102q4 28 14 95h27v-363z" />
    <glyph glyph-name="three" unicode="3" 
d="M278 734h77q157 0 232 88q40 47 50 111q9 56 9 124q0 123 -37 175q-47 65 -156 65q-62 0 -117 -25q-52 -23 -52 -52q0 -13 20 -26q42 -28 42 -84q0 -21 -8 -41q-18 -49 -65 -49q-37 0 -61 36q-20 31 -20 73q0 87 75 147q86 69 219 69q136 0 228 -72q109 -85 109 -222
t-119 -238q-61 -52 -129 -76q-27 -9 -84 -21q153 -18 231 -54q73 -34 121 -104q55 -80 55 -179q0 -123 -74 -228q-120 -171 -371 -171q-182 0 -276 105q-55 61 -55 137q0 40 15 70q24 48 76 48q33 0 56 -24q22 -24 22 -69q0 -55 -42 -85q-27 -19 -27 -31q0 -29 55 -66
q66 -44 161 -44q145 0 215 106q54 81 54 225q0 200 -103 278q-86 66 -250 66h-76v38z" />
    <glyph glyph-name="four" unicode="4" 
d="M700 356v-318h179v-38h-534v38h191v318h-482v86l566 897h80v-932h199v151h42v-355h-42v153h-199zM536 407v711l-444 -711h444z" />
    <glyph glyph-name="five" unicode="5" 
d="M278 1167l-23 -407q92 35 188 35q194 0 318 -105q137 -115 137 -298q0 -184 -143 -307q-124 -105 -299 -105q-138 0 -235 64q-105 69 -105 177q0 49 24 85q27 39 70 39q40 0 64 -32q17 -24 17 -58q0 -39 -21 -71q-9 -15 -48 -40q-11 -6 -11 -19q0 -23 44 -49
q92 -55 185 -55q110 0 182 77q85 91 85 309q0 160 -67 246q-79 101 -234 101q-69 0 -134 -27q-23 -10 -68 -33l27 527q2 59 16 80q18 22 83 23h372q41 0 57 11q11 9 27 40h27q-4 -109 -33 -162q-22 -37 -66 -42q-25 -4 -57 -4h-379z" />
    <glyph glyph-name="six" unicode="6" 
d="M827 1365q-228 -51 -360 -188q-99 -105 -135 -257q-11 -40 -21 -143q109 101 241 101q177 0 291 -142q96 -121 96 -299q0 -163 -91 -288q-124 -170 -323 -170q-141 0 -255 92q-178 144 -178 460q0 290 150 513q191 281 585 362v-41zM520 834q-83 0 -149 -56
q-60 -52 -77 -159q-11 -68 -11 -190q0 -203 53 -303q56 -106 187 -106q152 0 195 126q30 90 30 274q0 269 -59 341q-59 73 -169 73z" />
    <glyph glyph-name="seven" unicode="7" 
d="M839 1167h-519q-70 0 -102 -21q-28 -19 -54 -89l-36 -99h-34l92 366h745q27 0 27 -12q0 -6 -10 -25l-229 -511q-140 -312 -140 -438q0 -34 10 -79l19 -80q11 -49 11 -85q0 -48 -29 -81q-28 -33 -74 -33q-57 0 -83 49q-17 31 -17 81q0 84 51 212q86 217 101 251z" />
    <glyph glyph-name="eight" unicode="8" 
d="M584 701q121 -21 192 -66q77 -50 119.5 -126t42.5 -164q0 -152 -115 -255q-57 -51 -140 -80.5t-172 -29.5t-172 29.5t-140 80.5q-115 103 -115 255q0 136 93 233q68 71 167 102q31 10 94 21q-295 77 -295 308q0 73 35 142.5t97 116.5q101 77 236 77t236 -77
q62 -47 97 -116.5t35 -142.5q0 -231 -295 -308zM508 1304q-93 0 -139 -58q-36 -45 -44 -107q-7 -55 -7 -121q0 -114 18 -166q41 -119 175 -119q96 0 142 58q36 45 44 107q7 53 7 122q0 114 -18 165q-40 119 -178 119zM508 678q-52 0 -100.5 -25t-75.5 -66q-56 -84 -56 -238
q0 -152 56 -237q27 -41 76 -66t103 -25t103 25t76 66q56 85 56 236q0 155 -56 239q-60 91 -182 91z" />
    <glyph glyph-name="nine" unicode="9" 
d="M185 -45q228 33 360 176q88 96 139 266q19 66 31 163q-49 -64 -90 -89q-60 -37 -143 -37q-159 0 -277 124q-121 126 -121 306q0 183 109 319q128 162 319 162q183 0 301 -153q117 -152 117 -390q0 -285 -155 -512q-211 -309 -590 -376v41zM503 1304q-97 0 -153 -64
q-60 -68 -70 -223q-6 -87 -6 -182q0 -152 33 -236q47 -121 183 -121t205 120q45 78 45 256q0 162 -23 279q-19 92 -85 137q-50 34 -129 34z" />
    <glyph glyph-name="colon" unicode=":" horiz-adv-x="505" 
d="M255 819q46 0 80 -34t34 -82t-34 -82t-82 -34t-82 34t-34 82q0 49 34 82q35 34 84 34zM254 218q47 0 81 -34t34 -82t-34 -82t-82 -34t-82 34t-34 82q0 49 34 82q35 34 83 34z" />
    <glyph glyph-name="semicolon" unicode=";" horiz-adv-x="505" 
d="M230 819q47 0 81 -34t34 -82t-34 -82t-82 -34t-82 34t-34 82q0 49 34 82q35 34 83 34zM284 114q1 -17 1 -30q0 -46 -28 -74q-23 -24 -59 -24q-43 0 -68 31q-25 32 -25 82q0 51 29 86q35 44 97 44q73 0 123 -61q46 -58 46 -144q0 -169 -188 -335l-25 23q80 81 117 138
q48 75 48 145q0 83 -68 119z" />
    <glyph glyph-name="less" unicode="&#x3c;" 
d="M932 1218v-48l-708 -467l708 -470v-127l-839 553v11z" />
    <glyph glyph-name="equal" unicode="=" 
d="M919 816v-62h-814v62h814zM919 570v-62h-814v62h814z" />
    <glyph glyph-name="greater" unicode="&#x3e;" 
d="M93 106v48l708 466l-708 470v128l839 -554v-11z" />
    <glyph glyph-name="question" unicode="?" horiz-adv-x="772" 
d="M275 394q-9 73 -9 120q0 125 32 215q22 60 64 108q24 28 76 76l65 60q103 94 103 192q0 67 -59 121q-64 58 -174 58q-98 0 -170 -53q-52 -39 -52 -75q0 -21 32 -39q53 -30 53 -90q0 -29 -13 -53q-19 -36 -61 -36q-41 0 -65 41q-19 33 -19 78q0 120 92 197q85 71 204 71
q142 0 229 -95q40 -43 63.5 -107.5t23.5 -130.5q0 -180 -155 -305l-104 -83q-101 -84 -115 -137q-14 -42 -14 -126zM302 218q46 0 80 -34t34 -82t-34 -82t-82 -34t-82 34t-34 82q0 49 34 82q35 34 84 34z" />
    <glyph glyph-name="at" unicode="@" horiz-adv-x="1525" 
d="M1207 171h83q-66 -68 -139 -108q-164 -90 -347 -90q-268 0 -466 182q-107 99 -164.5 232t-57.5 280q0 142 54 270.5t154 226.5q95 92 220.5 143.5t255.5 51.5q117 0 230.5 -42.5t196.5 -117.5q182 -166 182 -423q0 -122 -53.5 -224.5t-156.5 -174.5q-104 -74 -203 -74
q-68 0 -100 31q-28 29 -36 124q-76 -152 -215 -152q-98 0 -163 73q-68 77 -68 196t66 232q61 104 165 165q74 43 143 43q84 0 126 -51q19 -24 37 -79l27 112h131l-118 -489q-17 -72 -17 -108q0 -43 45 -43q69 0 154 65q179 137 179 354q0 224 -161 376q-164 155 -390 155
q-250 0 -433 -176q-194 -186 -194 -462q0 -288 205 -476q183 -168 427 -168q215 0 401 146zM807 980q-102 0 -169 -144q-37 -80 -65 -188.5t-28 -173.5q0 -51 23 -91q27 -48 89 -48q126 0 199 183q31 76 51 165t20 148q0 61 -28 102q-32 47 -92 47z" />
    <glyph glyph-name="A" unicode="A" horiz-adv-x="1241" 
d="M748 439h-435l-138 -401h181v-38h-363v38h131l466 1327h55l447 -1327h156v-38h-556v38h194zM735 477l-203 603l-205 -603h408z" />
    <glyph glyph-name="B" unicode="B" horiz-adv-x="1260" 
d="M245 38v1289h-177v38h499q255 0 381 -74q157 -93 157 -260q0 -239 -346 -316q113 -17 170 -39q229 -87 229 -308q0 -181 -138 -278q-73 -51 -173 -72q-86 -18 -230 -18h-549v38h177zM436 733h141q105 0 168 19.5t100 64.5q60 70 60 208q0 182 -99 247q-83 55 -258 55
h-112v-594zM436 38h180q171 0 246 87q69 80 69 240q0 190 -92 263q-84 67 -268 67h-135v-657z" />
    <glyph glyph-name="C" unicode="C" horiz-adv-x="1210" 
d="M1112 1365v-354h-27q-22 78 -45.5 124t-66.5 90q-115 119 -286 119q-152 0 -249 -93q-62 -59 -85 -171q-25 -120 -25 -416q0 -208 9 -302q12 -138 62 -209q50 -72 143 -108q66 -25 136 -25q185 0 303 153q51 66 104 206h27v-379h-27l-68 103q-69 -47 -118 -71
q-110 -53 -225 -53q-140 0 -265 78q-155 98 -244 285q-69 146 -69 329q0 295 159 492q179 222 434 222q137 0 254 -71q31 -19 74 -52l68 103h27z" />
    <glyph glyph-name="D" unicode="D" horiz-adv-x="1379" 
d="M245 38v1289h-177v38h508q223 0 348 -58q190 -88 282 -278q77 -157 77 -345q0 -299 -182 -496q-102 -109 -223 -152q-100 -36 -301 -36h-509v38h177zM436 38h142q174 0 262 37q107 46 152 137q58 117 58 500q0 243 -30 366q-40 161 -201 219q-84 30 -244 30h-139v-1289z
" />
    <glyph glyph-name="E" unicode="E" horiz-adv-x="1199" 
d="M1035 1365l28 -370h-28q-38 171 -102 241q-56 61 -152 79q-58 12 -171 12h-174v-616h96q107 1 154 37q63 48 65 178v39h28v-560h-28v48q-1 109 -49 163q-49 55 -176 57h-90v-635h273q138 1 176 17q99 41 160 211q23 63 49 159h27l-40 -425h-1013v38h177v1289h-177v38h967
z" />
    <glyph glyph-name="F" unicode="F" horiz-adv-x="1094" 
d="M1040 1365l27 -393h-27q-20 144 -83 237q-47 69 -113 95q-59 22 -177 23h-231v-616h124q134 1 170 31q58 47 59 194v36h27v-551h-27v45q1 101 -50 156q-30 33 -79 42q-42 9 -102 9h-122v-635h192v-38h-560v38h177v1289h-177v38h972z" />
    <glyph glyph-name="G" unicode="G" horiz-adv-x="1300" 
d="M1087 1365v-401h-27q-95 380 -393 380q-126 0 -210 -70q-64 -53 -91 -153q-38 -139 -38 -474q0 -317 35 -425q64 -202 275 -202q205 0 263 195q18 63 19 219h-213v38h573v-38h-137q-14 -92 -30 -145q-46 -149 -182 -236q-117 -74 -267 -74q-251 0 -416 214
q-152 199 -152 479q0 331 201 541q165 172 381 172q159 0 313 -106l69 86h27z" />
    <glyph glyph-name="H" unicode="H" horiz-adv-x="1454" 
d="M1017 676h-581v-638h192v-38h-560v38h177v1289h-177v38h560v-38h-192v-613h581v613h-192v38h560v-38h-177v-1289h177v-38h-560v38h192v638z" />
    <glyph glyph-name="I" unicode="I" horiz-adv-x="683" 
d="M245 38v1289h-177v38h546v-38h-178v-1289h178v-38h-546v38h177z" />
    <glyph glyph-name="J" unicode="J" horiz-adv-x="784" 
d="M565 1327v-1024q0 -134 -21 -206q-33 -114 -132 -189q-85 -64 -188 -64q-95 0 -149 53q-48 46 -48 113q0 41 21 69q28 37 71 37q42 0 64 -33q19 -27 19 -62q0 -37 -30 -78q-6 -9 -6 -16q0 -14 18 -27q20 -15 48 -15q51 0 90 37q38 36 47 105q5 42 5 99v1201h-177v38h546
v-38h-178z" />
    <glyph glyph-name="K" unicode="K" horiz-adv-x="1344" 
d="M245 38v1289h-177v38h546v-38h-178v-1289h178v-38h-546v38h177zM641 834l597 -796h105v-38h-535v38h182l-515 685l547 604h-198v38h432v-38h-171z" />
    <glyph glyph-name="L" unicode="L" horiz-adv-x="1161" 
d="M1079 0h-1011v38h177v1289h-177v38h546v-38h-178v-1289h292q125 1 179 33q114 67 172 349h27z" />
    <glyph glyph-name="M" unicode="M" horiz-adv-x="1564" 
d="M686 0l-413 1327v-1289h177v-38h-389v38h164v1289h-164v38h409l317 -1024l316 1024h399v-38h-178v-1289h178v-38h-546v38h177v1279l-408 -1317h-39z" />
    <glyph glyph-name="N" unicode="N" horiz-adv-x="1390" 
d="M1137 0l-864 1316v-1278h191v-38h-416v38h177v1289h-177v38h432l643 -987v949h-177v38h376v-38h-151v-1327h-34z" />
    <glyph glyph-name="O" unicode="O" horiz-adv-x="1352" 
d="M683 1385q150 0 281 -90q152 -105 227 -275q66 -151 66 -337q0 -312 -177 -510q-172 -193 -403 -193q-253 0 -430 223q-151 192 -151 480q0 311 176 509q172 193 411 193zM671 1344q-135 0 -231 -87q-69 -62 -93 -180q-19 -93 -19 -394q0 -207 5 -284q15 -209 107 -292
q95 -86 237 -86q141 0 237 86q91 83 106 292q5 77 5 295q0 194 -6 272q-8 113 -32 179.5t-73 112.5q-94 86 -243 86z" />
    <glyph glyph-name="P" unicode="P" horiz-adv-x="1172" 
d="M436 660v-622h192v-38h-560v38h177v1290h-177v37h575q242 0 358 -95q126 -104 126 -264q0 -155 -135 -257q-118 -89 -349 -89h-207zM436 698h194q110 0 160 27q73 39 93 139q12 60 12 151q0 161 -36 223q-30 51 -89 72q-51 17 -141 17h-193v-629z" />
    <glyph glyph-name="Q" unicode="Q" horiz-adv-x="1352" 
d="M772 -12v-14q1 -161 43 -242q44 -84 145 -116q97 -31 222 -34v-27q-133 0 -243.5 19.5t-180.5 55.5q-66 35 -103.5 81t-55.5 116q-18 67 -18 133v28q-138 27 -253 129q-232 206 -232 565q0 312 177 510q172 193 404 193q253 0 429 -223q151 -192 151 -480
q0 -359 -232 -565q-115 -103 -253 -129zM671 1344q-135 0 -231 -87q-69 -62 -93 -180q-19 -93 -19 -394q0 -208 5 -285q15 -209 106 -292q96 -86 238 -86t237 86q91 83 106 292q5 77 5 296q0 193 -6 272q-8 113 -32 179.5t-73 112.5q-94 86 -243 86z" />
    <glyph glyph-name="R" unicode="R" horiz-adv-x="1318" 
d="M436 705v-667h192v-38h-560v38h177v1289h-177v38h557q165 0 239 -20q113 -30 179 -107q65 -77 65 -190q0 -136 -118 -230q-66 -53 -154 -76q-50 -14 -150 -26q121 -23 173 -47q101 -48 157 -146q47 -84 47 -190v-112q0 -96 18 -134q11 -23 35.5 -38t50.5 -15q33 0 86 26
l10 -35q-69 -35 -142 -35q-129 0 -206 96q-68 85 -68 251v100q-4 159 -79 213q-62 50 -207 55h-125zM436 743h134q183 0 264 87q63 69 63 205q0 133 -60 208q-67 84 -254 84h-147v-584z" />
    <glyph glyph-name="S" unicode="S" horiz-adv-x="1027" 
d="M851 1384l3 -353h-41q-18 117 -64 183q-93 130 -261 130q-97 0 -170 -57q-97 -75 -97 -192q0 -85 53 -132q63 -56 221 -97l109 -28q163 -42 239 -130q85 -98 85 -264q0 -171 -84 -299q-109 -165 -319 -165q-122 0 -222 61q-36 22 -92 73l-72 -114h-27l-14 424h41
q23 -147 76 -227q54 -83 137 -130q83 -46 178 -46q144 0 228 95q72 81 72 206t-75 189q-59 50 -178 82l-158 42q-168 45 -236 140q-59 82 -59 205q0 176 110 293q106 113 263 113q134 0 263 -91l64 89h27z" />
    <glyph glyph-name="T" unicode="T" horiz-adv-x="1194" 
d="M691 1327v-1289h205v-38h-601v38h205v1289h-98q-72 0 -108.5 -8.5t-68.5 -31.5q-120 -95 -171 -351l-27 4l15 425h1097l27 -425l-27 -4q-58 206 -115 283q-45 61 -102 85q-53 23 -128 23h-103z" />
    <glyph glyph-name="U" unicode="U" horiz-adv-x="1315" 
d="M409 1327v-908q0 -131 17 -188q31 -106 123 -161q81 -49 190 -49q190 0 279 158q34 59 42 141q3 35 3 134v873h-164v38h362v-38h-150v-873q0 -127 -17 -195q-68 -279 -393 -279q-243 0 -363 111q-79 73 -105 200q-15 76 -15 218v818h-177v38h546v-38h-178z" />
    <glyph glyph-name="V" unicode="V" horiz-adv-x="1136" 
d="M668 295l325 1032h-202v38h386v-38h-136l-427 -1347h-42l-474 1347h-132v38h538v-38h-197z" />
    <glyph glyph-name="W" unicode="W" horiz-adv-x="1606" 
d="M1153 293l323 1034h-186v38h344v-38h-112l-426 -1347h-37l-219 616l-226 -616h-37l-476 1347h-121v38h1228v-38h-114l-160 -446zM307 1327l367 -1052l140 390l-241 662h-266zM773 1327l137 -372l136 372h-273z" />
    <glyph glyph-name="X" unicode="X" horiz-adv-x="1193" 
d="M647 787l443 -749h124v-38h-542v38h182l-324 551l-330 -551h187v-38h-388v38h142l363 597l-410 692h-114v38h550v-38h-202l295 -493l308 493h-181v38h384v-38h-145z" />
    <glyph glyph-name="Y" unicode="Y" horiz-adv-x="1129" 
d="M679 639v-601h205v-38h-601v38h205v601l-412 688h-117v38h529v-38h-181l359 -604l313 604h-199v38h390v-38h-140z" />
    <glyph glyph-name="Z" unicode="Z" horiz-adv-x="1143" 
d="M1050 0h-989v49l786 1278h-374q-96 -1 -154 -41q-70 -51 -113 -161q-23 -57 -53 -175h-28l41 415h922l-803 -1327h397q118 1 163 19q90 36 150 164q31 68 66 206h27z" />
    <glyph glyph-name="bracketleft" unicode="[" horiz-adv-x="542" 
d="M291 1327v-1658h238v-38h-392v1734h392v-38h-238z" />
    <glyph glyph-name="backslash" unicode="\" horiz-adv-x="836" 
d="M83 1365h109l733 -1734h-110z" />
    <glyph glyph-name="bracketright" unicode="]" horiz-adv-x="542" 
d="M252 -331v1658h-238v38h392v-1734h-392v38h238z" />
    <glyph glyph-name="asciicircum" unicode="^" 
d="M1076 584h-82l-408 627l-420 -627h-217l569 849h13z" />
    <glyph glyph-name="underscore" unicode="_" 
d="M44 -181h936v-93h-936v93z" />
    <glyph glyph-name="grave" unicode="`" 
d="M382 1256l197 -292q3 -6 3 -9q0 -7 -7 -7q-2 0 -10 7l-325 263q-16 13 -16 24q0 14 25 14h133z" />
    <glyph glyph-name="a" unicode="a" horiz-adv-x="864" 
d="M554 439v205q0 71 -35 100q-40 34 -109 34q-61 0 -116 -27q-52 -26 -52 -50q0 -8 14 -27q27 -36 27 -66q0 -29 -15 -51q-21 -32 -58 -32q-38 0 -59 30q-16 24 -16 59q0 67 66 121q93 77 233 77q135 0 214 -63q63 -51 63 -172v-459q0 -50 10 -66q14 -22 45 -22q27 0 61 31
l18 -23q-36 -27 -54 -37q-37 -22 -85 -22q-89 0 -126 68q-17 33 -26 99q-91 -166 -257 -166q-97 0 -152 46q-63 54 -63 143q0 74 48 133t136 94q95 38 288 43zM554 409q-103 -3 -152 -18q-164 -50 -164 -189q0 -66 38 -103q38 -36 94 -36q67 0 118 50q50 49 61 132
q5 41 5 96v68z" />
    <glyph glyph-name="b" unicode="b" horiz-adv-x="1009" 
d="M331 1365v-724q36 66 76 104q71 67 174 67q149 0 247 -116q100 -119 100 -292q0 -164 -90 -286q-103 -139 -261 -139q-98 0 -165 58q-37 33 -81 105v-142h-294v38h137v1289h-137v38h294zM737 335v164q0 144 -27 194q-41 78 -141 78q-125 0 -196 -134q-46 -86 -46 -226
q0 -196 65 -288q72 -103 182 -103q125 0 152 126q11 50 11 189z" />
    <glyph glyph-name="c" unicode="c" horiz-adv-x="825" 
d="M805 258q-32 -118 -84 -175q-97 -104 -247 -104q-172 0 -286 130q-106 120 -106 284q0 170 117 295t297 125q150 0 230 -90q45 -52 45 -116q0 -29 -12 -53q-22 -44 -71 -44q-39 0 -60 30q-20 29 -20 68q0 54 35 89q13 13 13 20q0 19 -37 34q-55 22 -122 22
q-145 0 -192 -101q-32 -69 -32 -205v-130q0 -174 38 -233q53 -84 163 -84q136 0 223 100q42 48 67 138h41z" />
    <glyph glyph-name="d" unicode="d" horiz-adv-x="1006" 
d="M676 0v172q-40 -83 -77 -121q-68 -71 -170 -71q-155 0 -257 130q-90 115 -90 287q0 157 76 269q99 146 265 146q102 0 170 -65q42 -40 83 -118v698h-164v38h321v-1327h136v-38h-293zM273 478v-140q0 -163 25 -224q38 -93 137 -93q101 0 168 102t67 271q0 160 -58 260
q-69 117 -184 117q-102 0 -135 -94q-20 -54 -20 -199z" />
    <glyph glyph-name="e" unicode="e" horiz-adv-x="884" 
d="M269 467v-157q0 -109 14 -156q41 -134 197 -134q134 0 221 102q46 55 64 143h41q-19 -110 -87 -183q-95 -103 -238 -103q-160 0 -280 123q-119 123 -119 291q0 148 97 273q114 146 285 146q112 0 203 -64q138 -97 145 -281h-543zM627 505v87q0 94 -38 134q-43 45 -133 45
q-83 0 -131 -39q-56 -47 -56 -157v-70h358z" />
    <glyph glyph-name="f" unicode="f" horiz-adv-x="611" 
d="M369 754v-716h180v-38h-516v38h179v716h-179v38h179v179q0 141 26 210q39 103 117 159q66 46 140 46q64 0 111 -32q56 -37 56 -105q0 -30 -13 -54q-20 -36 -58 -36q-36 0 -56 33q-14 22 -14 53q0 48 42 83q-26 26 -72 26q-60 0 -91 -43q-24 -33 -28 -74q-3 -37 -3 -97
v-348h194v-38h-194z" />
    <glyph glyph-name="g" unicode="g" horiz-adv-x="895" 
d="M684 701q60 -83 60 -179q0 -114 -82 -193q-92 -89 -229 -89q-81 0 -158 34q-147 -88 -147 -163q0 -73 141 -73h319q93 0 130 -11q124 -34 124 -205q0 -152 -96 -255q-117 -127 -323 -127q-166 0 -279 78q-89 61 -89 162q0 70 49 117q32 30 105 62q-154 42 -154 183
q0 99 92 184q13 11 67 49l28 20q-59 46 -83 87q-39 66 -39 147q0 123 88 202q88 81 225 81q93 0 164 -40q26 -16 64 -49q36 34 60 50q40 27 84 27q39 0 64 -22q25 -21 25 -58q0 -74 -62 -74q-49 0 -60 69q-3 23 -27 23q-25 0 -61 -37zM288 590v-123q0 -107 25 -142
q31 -44 118 -44q79 0 110 33q33 35 33 153v133q0 100 -24 131q-31 40 -119 40q-76 0 -109 -36q-34 -39 -34 -145zM241 -143q-76 -74 -76 -158q0 -83 58 -144q70 -74 209 -74q189 0 291 124q64 77 64 162q0 64 -46 80q-28 10 -143 10h-242h-75h-40z" />
    <glyph glyph-name="h" unicode="h" horiz-adv-x="1069" 
d="M331 1365v-695q52 56 92 84q88 59 221 59q99 0 164 -37q88 -50 88 -191v-547h136v-38h-430v38h137v547q0 105 -41 144q-39 36 -110 36q-151 0 -221 -143q-36 -75 -36 -260v-324h136v-38h-430v38h137v1289h-137v38h294z" />
    <glyph glyph-name="i" unicode="i" horiz-adv-x="542" 
d="M369 792v-754h136v-38h-430v38h137v716h-137v38h294zM278 1337q44 0 76 -32t32 -77t-32 -77t-77 -32t-77 32t-32 77q0 46 32 77q33 32 78 32z" />
    <glyph glyph-name="j" unicode="j" horiz-adv-x="467" 
d="M330 792v-949q0 -121 -10 -174q-23 -116 -99 -176q-65 -53 -146 -53q-71 0 -124 41q-50 39 -50 105q0 39 17 64q19 28 54 28t54 -26q15 -22 15 -55q0 -13 -6 -45q-2 -13 -2 -25q0 -46 56 -46q84 0 84 147v1126h-136v38h293zM240 1337q44 0 76 -32t32 -77t-32 -77t-77 -32
t-77 32t-32 77q0 46 32 77q32 32 78 32z" />
    <glyph glyph-name="k" unicode="k" horiz-adv-x="1003" 
d="M331 1365v-1327h136v-38h-430v38h137v1289h-137v38h294zM527 512l377 -474h99v-38h-436v38h112l-305 399l346 317h-193v38h399v-38h-137z" />
    <glyph glyph-name="l" unicode="l" horiz-adv-x="504" 
d="M330 1365v-1327h157v-38h-471v38h157v1289h-157v38h314z" />
    <glyph glyph-name="m" unicode="m" horiz-adv-x="1550" 
d="M369 792v-92q52 47 94 69q82 43 190 43q101 0 159 -39q33 -22 61 -73q118 113 274 113q122 0 179 -59q50 -51 50 -166v-550h137v-38h-431v38h137v573q0 154 -133 154q-71 0 -126 -44q-54 -42 -74 -123q-12 -47 -12 -177v-383h136v-38h-430v38h137v573q0 81 -38 117
t-100 36q-70 0 -130 -49q-59 -49 -73 -156q-7 -54 -7 -173v-348h136v-38h-430v38h137v716h-137v38h294z" />
    <glyph glyph-name="n" unicode="n" horiz-adv-x="1071" 
d="M369 792v-118q47 55 84 81q80 57 183 57q132 0 206 -82q55 -62 55 -188v-504h137v-38h-430v38h136v558q0 168 -133 168q-77 0 -143 -52q-68 -54 -84 -155q-11 -65 -11 -193v-326h136v-38h-430v38h137v716h-137v38h294z" />
    <glyph glyph-name="o" unicode="o" horiz-adv-x="963" 
d="M487 812q155 0 271 -114q124 -122 124 -302t-124 -302q-115 -114 -276 -114t-276 114q-124 123 -124 301q0 86 33 166.5t91 136.5q118 114 281 114zM273 446v-100q3 -124 6 -154q9 -90 65 -131q55 -40 137 -40q139 0 186 100q24 50 24 225v100q0 188 -32 239
q-52 86 -178 86q-82 0 -137 -40q-56 -41 -65 -131q-3 -31 -6 -154z" />
    <glyph glyph-name="p" unicode="p" horiz-adv-x="1002" 
d="M331 792v-166q36 73 76 114q72 72 179 72q124 0 213 -89q122 -122 122 -313q0 -205 -132 -341q-86 -89 -206 -89q-117 0 -188 86q-31 37 -64 102v-676h163v-38h-457v38h137v1262h-137v38h294zM730 359v150q0 133 -21 182q-34 80 -132 80q-112 0 -180 -113
q-62 -102 -62 -271q0 -164 70 -266q68 -101 163 -101q110 0 140 112q22 82 22 227z" />
    <glyph glyph-name="q" unicode="q" horiz-adv-x="979" 
d="M648 792h294v-38h-137v-1262h137v-38h-457v38h163v666q-44 -88 -83 -124q-59 -54 -148 -54q-144 0 -235 117q-100 129 -100 306q0 171 96 295q88 115 227 115q100 0 167 -66q36 -35 76 -101v146zM273 488v-164q0 -161 31 -223q18 -37 50.5 -58.5t68.5 -21.5q68 0 125 54
q94 87 94 325q0 171 -45 250q-69 122 -176 122q-86 0 -123 -82q-25 -55 -25 -202z" />
    <glyph glyph-name="r" unicode="r" horiz-adv-x="723" 
d="M369 792v-205q33 88 63 134q59 92 156 92q58 0 88 -35q27 -31 27 -77q0 -37 -16 -64q-20 -37 -63 -37q-70 0 -73 103q-1 34 -29 34q-61 0 -112 -141q-29 -82 -36 -164q-5 -50 -5 -157v-237h136v-38h-430v38h137v716h-137v38h294z" />
    <glyph glyph-name="s" unicode="s" horiz-adv-x="729" 
d="M615 808v-236h-34q-18 89 -69 137q-68 62 -163 62q-70 0 -121 -40q-52 -42 -52 -102q0 -46 41 -67q45 -22 118 -37l91 -18q118 -24 169 -77q63 -66 63 -180q0 -99 -54 -172q-72 -99 -204 -99q-77 0 -142 36q-33 18 -85 63l-47 -78h-20v303h34q21 -104 56 -158
q79 -125 212 -125q78 0 131 47q55 49 55 112q0 98 -131 124l-158 32q-98 19 -145 85q-46 64 -46 147q0 109 69 178q67 67 177 67q100 0 200 -77l28 73h27z" />
    <glyph glyph-name="t" unicode="t" horiz-adv-x="591" 
d="M330 754v-580q0 -67 18 -94q27 -39 86 -39q92 0 117 110h41q-34 -172 -213 -172q-110 0 -167 70q-26 33 -34 76q-5 29 -5 95v534h-132v31q75 33 156 127q77 96 114 205h19v-325h219v-38h-219z" />
    <glyph glyph-name="u" unicode="u" horiz-adv-x="1047" 
d="M873 792v-754h137v-38h-294v124q-38 -55 -73 -82q-78 -62 -198 -62q-160 0 -227 88q-44 60 -44 200v486h-137v38h294v-552q0 -104 21 -149q29 -63 121 -63q79 0 141 43q71 49 88 154q14 81 14 184v345h-136v38h293z" />
    <glyph glyph-name="v" unicode="v" horiz-adv-x="886" 
d="M422 -20l-317 774h-105v38h446v-38h-162l230 -580l234 580h-162v38h300v-38h-90l-310 -774h-64z" />
    <glyph glyph-name="w" unicode="w" horiz-adv-x="1252" 
d="M858 -20l-220 554l-176 -552h-60l-297 772h-105v38h427v-38h-148l206 -563l185 601h45l226 -601l174 563h-130v38h267v-38h-89l-245 -774h-60z" />
    <glyph glyph-name="x" unicode="x" horiz-adv-x="866" 
d="M489 471l298 -433h86v-38h-383v38h103l-204 297l-227 -297h155v-38h-324v38h103l264 335l-264 381h-103v38h426v-38h-131l170 -244l197 244h-135v38h300v-38h-109z" />
    <glyph glyph-name="y" unicode="y" horiz-adv-x="847" 
d="M511 192l193 562h-143v38h286v-38h-90l-387 -1101q-37 -105 -80 -157q-46 -56 -120 -56q-42 0 -71 22q-42 32 -42 86q0 41 25 68t64 27q46 0 87 -53q11 -15 29 -15q25 0 40 26q11 19 28 69l111 318l-345 766h-96v38h416v-38h-139z" />
    <glyph glyph-name="z" unicode="z" horiz-adv-x="821" 
d="M750 0h-687l489 754h-121q-80 0 -127 -16.5t-77 -54.5q-38 -53 -80 -196h-27l7 305h641l-499 -754h184q105 1 150 28q78 39 125 269h27z" />
    <glyph glyph-name="braceleft" unicode="{" horiz-adv-x="542" 
d="M2 511v32q71 4 100 45q23 35 28 106q1 25 4 113v153q0 157 11 214q27 152 150 177q45 12 196 14v-37q-139 -7 -179 -102q-25 -64 -24 -200v-201q0 -118 -11 -168q-18 -65 -78 -101q-31 -18 -71 -25v-8q73 -9 118 -69q35 -50 40 -132q2 -23 2 -112v-211q0 -117 5 -153
q9 -61 28 -96t54 -54q46 -23 116 -28v-37q-132 -1 -195 14q-112 26 -148 145q-13 62 -14 254v176q-2 157 -10 201q-5 23 -22.5 47t-36.5 32q-18 8 -63 11z" />
    <glyph glyph-name="bar" unicode="|" 
d="M453 1365h118v-1706h-118v1706z" />
    <glyph glyph-name="braceright" unicode="}" horiz-adv-x="542" 
d="M540 511q-45 -3 -63 -11q-19 -8 -36.5 -31.5t-22.5 -47.5q-8 -45 -10 -201v-176q0 -216 -20 -272q-44 -109 -159 -130q-69 -12 -178 -11v37q149 7 182 110q16 42 20 101q1 19 1 120v211q0 115 7 162q15 86 86 128q30 18 67 23v8q-73 12 -116 65q-36 45 -42 122
q-2 27 -2 107v201q1 153 -34 219q-43 76 -169 83v37q135 -2 180 -10q113 -19 156 -140q18 -56 20 -129q1 -38 1 -126v-153q4 -131 10 -171q5 -23 20 -45.5t34 -32.5q23 -12 68 -15v-32z" />
    <glyph glyph-name="asciitilde" unicode="~" horiz-adv-x="1365" 
d="M1080 1502l30 -20q-40 -72 -108 -128q-84 -70 -169 -70q-39 0 -101 19l-87 29q-117 38 -177 38q-72 0 -122 -50q-20 -19 -60 -67l-31 20q119 201 282 201q54 0 183 -44q111 -38 163 -38q109 0 197 110z" />
    <glyph glyph-name="nbspace" unicode="&#xa0;" horiz-adv-x="512" 
 />
    <glyph glyph-name="exclamdown" unicode="&#xa1;" horiz-adv-x="560" 
d="M297 424q3 -130 8 -248q3 -140 37 -332l37 -199q5 -29 5 -61q0 -43 -16 -79q-30 -65 -88 -65t-88 65q-16 36 -16 79q0 29 6 61l36 199q20 112 29 215t15 320l2 45h33zM281 839q47 0 81 -34t34 -82t-34 -82t-82 -34t-82 34t-34 82q0 49 34 82q35 34 83 34z" />
    <glyph glyph-name="cent" unicode="&#xa2;" 
d="M576 1119q127 -2 202 -67q69 -59 69 -139q0 -28 -12 -52q-22 -44 -71 -44q-39 0 -60 30q-20 28 -20 68q0 53 35 88q13 13 13 20q0 26 -71 45q-40 11 -85 11v-752q86 9 151 57q81 62 112 180h41q-22 -82 -47 -125q-86 -142 -257 -153v-201h-60v202q-116 9 -205 82
q-75 61 -115 149q-39 85 -39 181q0 135 75 243q106 153 284 174v246h60v-243zM516 329v746q-73 -12 -112 -58q-52 -58 -56 -243v-131q0 -127 18 -189q33 -110 150 -125z" />
    <glyph glyph-name="sterling" unicode="&#xa3;" 
d="M417 549h-300v62h249l-114 139q-59 72 -84 129.5t-25 119.5q0 135 101 244q61 66 150 104t183 38q174 0 283 -118q67 -72 67 -162q0 -50 -24 -88q-32 -52 -88 -52q-44 0 -70 35q-21 27 -21 62q0 39 26 68q5 6 34 32q18 16 18 34q0 48 -43 89q-61 59 -173 59
q-135 0 -211 -90q-71 -85 -71 -204q0 -125 99 -270l90 -131q12 -17 24 -38h303v-62h-272q28 -71 28 -150q0 -85 -32 -188l69 -38q117 -64 196 -64q42 0 82 25.5t63 66.5q28 51 28 122q0 8 -1 28h49q-3 -128 -40 -214q-67 -157 -240 -157q-104 0 -191 55l-82 52
q-114 -86 -253 -86q-93 0 -151 36q-65 41 -65 113q0 71 63 108q63 38 158 38q127 0 264 -63q16 48 16 92q0 102 -65 188zM436 119l-95 53q-91 52 -175 52q-41 0 -71 -21q-33 -23 -33 -60q0 -43 41 -70q48 -31 126 -31q71 0 129 25q34 14 78 52z" />
    <glyph glyph-name="currency" unicode="&#xa4;" 
d="M780 980l136 135l43 -43l-136 -136q99 -118 99 -267q0 -148 -99 -267l136 -136l-43 -43l-136 135q-118 -99 -268 -99q-146 0 -267 99l-136 -135l-43 43l136 136q-99 119 -99 267q0 149 99 267l-136 136l43 43l136 -136q121 100 267 100q149 0 268 -99zM508 951
q-120 0 -205 -93q-72 -81 -72 -189q0 -125 93 -210q80 -72 188 -72q126 0 210 93q72 81 72 191q0 122 -93 207q-80 73 -193 73z" />
    <glyph glyph-name="yen" unicode="&#xa5;" 
d="M272 924l-193 362h-100v38h453v-38h-155l304 -592l267 592h-166v38h335v-38h-120l-164 -362h238v-38h-254l-104 -227h296v-38h-313v-583h176v-38h-515v38h175v583h-318v38h298l-121 227h-239v38h220z" />
    <glyph glyph-name="brokenbar" unicode="&#xa6;" 
d="M453 1365h118v-688h-118v688zM453 314h118v-655h-118v655z" />
    <glyph glyph-name="section" unicode="&#xa7;" 
d="M701 241q84 -52 125 -95q74 -78 74 -195q0 -63 -24.5 -123t-65.5 -100q-57 -55 -146 -86t-187 -31q-176 0 -284 102q-79 74 -79 168q0 62 35 103q36 42 86 42q37 0 66 -25q33 -30 33 -85q0 -59 -34 -97q-33 -36 -99 -42q49 -65 116 -95t166 -30q136 0 226 57t90 166
q0 73 -45 121q-33 37 -126 87l-295 159q-124 67 -166 119q-52 66 -52 170q0 127 70 208q39 44 121 83q-51 40 -79 77q-53 69 -53 167q0 138 91 229q89 91 253 91q147 0 236 -71q87 -68 87 -161q0 -55 -34 -91q-32 -34 -78 -34q-44 0 -70 32q-22 25 -22 63q0 64 50 94
q22 13 71 24q-70 103 -236 103q-108 0 -182 -44q-84 -51 -84 -149q0 -56 35 -97q31 -38 117 -83l259 -135q119 -62 172 -115q72 -72 72 -193q0 -212 -210 -288zM314 441l250 -132q59 -31 96 -31q71 0 133 63q50 52 50 114q0 59 -48 108q-32 33 -126 84l-188 102
q-65 35 -131 35q-62 0 -108 -42q-59 -54 -59 -127q0 -105 131 -174z" />
    <glyph glyph-name="dieresis" unicode="&#xa8;" 
d="M336 1195q40 0 69 -29t29 -70t-29 -70t-70 -29t-70 29t-29 70t29 70q30 29 71 29zM691 1195q40 0 69 -29t29 -70t-29 -70t-70 -29t-70 29t-29 70t29 70q30 29 71 29z" />
    <glyph glyph-name="copyright" unicode="&#xa9;" horiz-adv-x="1611" 
d="M817 1385q144 0 279.5 -61t236.5 -172q183 -199 183 -470q0 -149 -61.5 -286t-173.5 -237q-203 -180 -475 -180q-151 0 -289 61t-239 171q-182 201 -182 477q0 304 236 516q200 181 485 181zM796 1327q-130 0 -251.5 -56t-212.5 -158q-164 -183 -164 -431q0 -137 55 -262
t156 -217q182 -166 427 -166q136 0 260 56t214 158q164 184 164 436q0 278 -211 474q-180 166 -437 166zM1085 1085v-215h-28q-26 93 -84 141.5t-145 48.5t-142 -51q-46 -42 -56 -151q-7 -68 -7 -178q0 -119 5 -173q11 -109 73 -151q53 -37 121 -37q107 0 174 85
q30 38 61 119h28v-229h-27l-38 56q-105 -68 -200 -68q-150 0 -253 127q-95 116 -95 274q0 171 95 285q108 129 262 129q99 0 192 -68l37 56h27z" />
    <glyph glyph-name="ordfeminine" unicode="&#xaa;" horiz-adv-x="683" 
d="M406 1128v131q0 83 -93 83q-39 0 -77 -18q-31 -14 -31 -27q0 -5 7 -14q20 -24 20 -48q0 -22 -11 -39q-17 -24 -46 -24t-45 23q-13 18 -13 44q0 48 48 86q66 54 165 54q95 0 152 -44q46 -36 46 -121v-309q0 -31 6 -39q8 -12 25 -12t43 23l22 -27q-31 -21 -45 -29
q-26 -15 -61 -15q-94 0 -109 98q-60 -98 -174 -98q-69 0 -109 33q-46 37 -46 100q0 109 131 160q67 25 195 29zM406 1094q-204 -7 -204 -133q0 -41 24 -63q25 -23 60 -23q43 0 77 32q43 41 43 148v39z" />
    <glyph glyph-name="guillemotleft" unicode="&#xab;" horiz-adv-x="771" 
d="M331 409l228 213h103l-227 -213l227 -212h-103zM96 409l228 213h103l-227 -213l227 -212h-103z" />
    <glyph glyph-name="logicalnot" unicode="&#xac;" 
d="M747 0v457h-675v89h880v-546h-205z" />
    <glyph glyph-name="sfthyphen" unicode="&#xad;" horiz-adv-x="387" 
d="M387 471v-123h-387v123h387z" />
    <glyph glyph-name="registered" unicode="&#xae;" horiz-adv-x="1611" 
d="M817 1385q144 0 279.5 -61t236.5 -172q183 -199 183 -470q0 -149 -61.5 -286t-173.5 -237q-203 -180 -475 -180q-151 0 -289 61t-239 171q-182 201 -182 477q0 304 236 516q200 181 485 181zM796 1327q-130 0 -251.5 -56t-212.5 -158q-164 -183 -164 -431q0 -137 55 -262
t156 -217q182 -166 427 -166q136 0 260 56t214 158q164 184 164 436q0 278 -211 474q-180 166 -437 166zM704 696v-367h113v-35h-344v35h105v721h-105v35h336q98 0 142 -11q69 -17 110 -63q40 -46 40 -113q0 -80 -73 -137q-52 -40 -141 -53q89 -19 138 -76.5t49 -140.5v-64
q0 -54 10 -74q13 -26 44 -26q21 0 55 17l11 -33q-48 -22 -93 -22q-79 0 -126 57q-42 50 -42 147v57q-2 89 -44 116q-36 28 -118 30h-67zM704 731h72q106 0 151 47q36 37 36 113q0 73 -34 113q-38 46 -145 46h-80v-319z" />
    <glyph glyph-name="overscore" unicode="&#xaf;" 
d="M44 1725h936v-93h-936v93z" />
    <glyph glyph-name="degree" unicode="&#xb0;" horiz-adv-x="694" 
d="M353 1365q105 0 184 -79q77 -77 77 -182q0 -112 -77 -190t-188 -78q-119 0 -200 87q-69 74 -69 180q0 122 90 196q80 66 183 66zM343 1307q-75 0 -131 -52q-68 -64 -68 -152q0 -77 51 -136q60 -70 153 -70q81 0 141 58q61 60 61 145q0 87 -59 146q-62 61 -148 61z" />
    <glyph glyph-name="plusminus" unicode="&#xb1;" 
d="M481 632h-376v61h376v363h62v-363h376v-61h-376v-363h-62v363zM919 161v-62h-814v62h814z" />
    <glyph glyph-name="twosuperior" unicode="&#xb2;" horiz-adv-x="669" 
d="M572 530h-504v65l202 201q86 85 131 162q34 59 34 136q0 90 -40 143q-43 57 -112 57q-58 0 -104 -40q-43 -38 -43 -90q0 -18 11 -18q2 0 6 2q23 9 41 9q24 0 42 -17q19 -17 19 -43q0 -25 -16 -43q-18 -19 -49 -19q-44 0 -71 36q-24 33 -24 79q0 81 64 133q65 53 166 53
q110 0 177 -55q72 -59 72 -149q0 -76 -71 -164q-33 -41 -142 -144l-193 -188h272q42 0 59 5.5t24 22.5q8 19 19 93h30v-227z" />
    <glyph glyph-name="threesuperior" unicode="&#xb3;" horiz-adv-x="669" 
d="M180 976h54q92 0 135 50q34 38 34 134q0 69 -21 98q-26 36 -87 36q-36 0 -70 -14q-28 -12 -28 -23q0 -4 9 -11q30 -21 30 -55q0 -26 -14.5 -43t-37.5 -17q-26 0 -43 24q-14 20 -14 47q0 54 49 92q54 42 141 42q86 0 148 -44q72 -51 72 -136q0 -84 -79 -146
q-44 -34 -98 -49q64 -9 108 -28q53 -23 84.5 -70.5t31.5 -102.5q0 -111 -91 -183q-76 -60 -197 -60q-117 0 -177 64q-36 38 -36 86q0 25 10 44q17 32 54 32q23 0 39 -16q16 -17 16 -45q0 -37 -29 -57q-14 -9 -14 -13q0 -12 34 -33q38 -24 92 -24q156 0 156 188
q0 115 -60 160q-50 37 -147 37h-54v36z" />
    <glyph glyph-name="acute" unicode="&#xb4;" 
d="M642 1256h134q25 0 25 -14q0 -11 -16 -24l-325 -263q-8 -7 -10 -7q-7 0 -7 7q0 4 3 9z" />
    <glyph glyph-name="mu" unicode="&#xb5;" horiz-adv-x="1047" 
d="M174 754h-137v38h294v-552q0 -105 21 -150q29 -63 121 -63q79 0 141 43q71 49 88 155q14 80 14 184v345h-136v38h293v-754h137v-38h-294v124q-38 -55 -73 -83q-78 -62 -202 -62q-133 0 -189 67q14 -138 25 -204l31 -192q5 -27 5 -54q0 -68 -29 -107q-25 -35 -62 -35
q-39 0 -66 44q-23 39 -23 90q0 27 5 62l27 178q10 67 10 348l-1 92v486z" />
    <glyph glyph-name="paragraph" unicode="&#xb6;" 
d="M467 -331v969h-44q-123 0 -210 55q-71 44 -113 123q-45 84 -45 183q0 126 70 225q99 141 331 141h485v-38h-123v-1658h123v-38h-631v38h157zM556 -331h174v1658h-174v-1658z" />
    <glyph glyph-name="middot" unicode="&#xb7;" horiz-adv-x="505" 
d="M255 526q46 0 80 -34t34 -82t-34 -82t-82 -34t-82 34t-34 82q0 49 34 82q35 34 84 34z" />
    <glyph glyph-name="cedilla" unicode="&#xb8;" 
d="M536 0l-34 -116q20 1 30 1q37 0 69 -8q81 -22 81 -96q0 -59 -60 -98q-62 -42 -139 -42q-84 0 -129 49q-30 32 -30 77q0 32 24 32q28 0 27 -65q0 -22 1 -27q3 -15 33 -25q27 -9 55 -9q47 0 76 33q23 26 23 61q0 75 -102 99l35 134h40z" />
    <glyph glyph-name="onesuperior" unicode="&#xb9;" horiz-adv-x="669" 
d="M419 1325v-760h134v-36h-405v36h145v690q0 19 -3 22t-19 3h-123v32z" />
    <glyph glyph-name="ordmasculine" unicode="&#xba;" horiz-adv-x="683" 
d="M344 1379q110 0 192 -78q88 -84 88 -209q0 -123 -88 -208q-82 -78 -195 -78t-194 78q-88 85 -88 208q0 126 88 209q83 78 197 78zM202 1126v-68q0 -124 21 -157q34 -54 117 -54q91 0 122 63q16 32 16 148v68q0 124 -21 157q-34 55 -117 55q-91 0 -122 -63
q-16 -33 -16 -149z" />
    <glyph glyph-name="guillemotright" unicode="&#xbb;" horiz-adv-x="771" 
d="M440 409l-228 -212h-103l227 212l-227 213h103zM675 409l-228 -212h-103l227 212l-227 213h103z" />
    <glyph glyph-name="onequarter" unicode="&#xbc;" horiz-adv-x="1571" 
d="M419 1325v-760h134v-36h-405v36h145v690q0 19 -3 22t-19 3h-123v32zM1154 1324l-615 -1324h-68l614 1324h69zM1370 210v-174h101v-36h-345v36h118v174h-299v60l355 534h70v-550h99v89h40v-223h-40v90h-99zM1244 254v390l-256 -390h256z" />
    <glyph glyph-name="onehalf" unicode="&#xbd;" horiz-adv-x="1571" 
d="M419 1325v-760h134v-36h-405v36h145v690q0 19 -3 22t-19 3h-123v32zM1127 1324l-615 -1324h-69l615 1324h69zM1473 0h-504v65l202 202q87 87 131 162q34 59 34 136q0 90 -40 143q-43 57 -112 57q-58 0 -104 -40q-43 -37 -43 -90q0 -18 11 -18q2 0 6 2q22 9 41 9
q23 0 42 -17t19 -43q0 -25 -16 -43q-18 -19 -49 -19q-44 0 -71 36q-24 33 -24 79q0 81 64 133q65 53 166 53q110 0 177 -55q72 -59 72 -149q0 -76 -71 -164q-33 -42 -142 -144l-193 -189h272q42 0 59 5.5t24 22.5q8 19 19 94h30v-228z" />
    <glyph glyph-name="threequarters" unicode="&#xbe;" horiz-adv-x="1571" 
d="M180 976h54q92 0 135 50q34 38 34 134q0 69 -21 98q-26 36 -87 36q-36 0 -70 -14q-28 -12 -28 -23q0 -4 9 -11q30 -21 30 -55q0 -26 -14.5 -43t-37.5 -17q-26 0 -43 24q-14 20 -14 47q0 54 49 92q54 42 141 42q86 0 148 -44q72 -51 72 -136q0 -84 -79 -146
q-44 -34 -98 -49q64 -9 108 -28q53 -23 84.5 -70.5t31.5 -102.5q0 -111 -91 -183q-76 -60 -197 -60q-117 0 -177 64q-36 38 -36 86q0 25 10 44q17 32 54 32q23 0 39 -16q16 -17 16 -45q0 -37 -29 -57q-14 -9 -14 -13q0 -12 34 -33q38 -24 92 -24q156 0 156 188
q0 115 -60 160q-50 37 -147 37h-54v36zM1154 1324l-615 -1324h-68l614 1324h69zM1370 210v-174h101v-36h-345v36h118v174h-299v60l355 534h70v-550h99v89h40v-223h-40v90h-99zM1244 254v390l-256 -390h256z" />
    <glyph glyph-name="questiondown" unicode="&#xbf;" horiz-adv-x="772" 
d="M497 432q9 -72 9 -120q0 -125 -32 -216q-22 -59 -64 -108q-24 -27 -76 -75l-65 -60q-103 -95 -103 -192q0 -67 59 -122q63 -58 173 -58q99 0 171 53q52 39 52 75q0 21 -32 40q-53 30 -53 90q0 29 13 53q19 36 61 36q41 0 65 -41q19 -33 19 -78q0 -121 -92 -198
q-85 -71 -204 -71q-141 0 -229 95q-40 43 -63.5 107.5t-23.5 130.5q0 181 155 306l104 83q101 84 115 137q14 42 14 126zM473 839q47 0 81 -34t34 -82t-34 -82t-82 -34t-82 34t-34 82q0 49 34 82q35 34 83 34z" />
    <glyph glyph-name="Agrave" unicode="&#xc0;" horiz-adv-x="1241" 
d="M0 0zM748 439h-435l-138 -401h181v-38h-363v38h131l466 1327h55l447 -1327h156v-38h-556v38h194zM735 477l-203 603l-205 -603h408zM472 1707l265 -210q10 -8 10 -14q0 -8 -8 -8t-13 2l-453 191q-26 10 -26 24q0 15 27 15h198z" />
    <glyph glyph-name="Aacute" unicode="&#xc1;" horiz-adv-x="1241" 
d="M0 0zM748 439h-435l-138 -401h181v-38h-363v38h131l466 1327h55l447 -1327h156v-38h-556v38h194zM735 477l-203 603l-205 -603h408zM761 1707h199q27 0 27 -15q0 -14 -26 -24l-453 -191q-6 -2 -13 -2q-8 0 -8 8q0 6 10 14z" />
    <glyph glyph-name="Acircumflex" unicode="&#xc2;" horiz-adv-x="1241" 
d="M0 0zM748 439h-435l-138 -401h181v-38h-363v38h131l466 1327h55l447 -1327h156v-38h-556v38h194zM735 477l-203 603l-205 -603h408zM617 1576l-302 -100q-3 -1 -7 -1q-12 0 -12 7q0 4 11 13l310 222l310 -222q12 -9 12 -14q0 -6 -13 -6q-4 0 -7 1z" />
    <glyph glyph-name="Atilde" unicode="&#xc3;" horiz-adv-x="1241" 
d="M0 0zM748 439h-435l-138 -401h181v-38h-363v38h131l466 1327h55l447 -1327h156v-38h-556v38h194zM735 477l-203 603l-205 -603h408zM946 1670l21 -11q-60 -94 -108 -124q-54 -33 -109 -33q-39 0 -105 21l-87 28q-64 20 -109 20q-52 0 -93 -21q-22 -11 -49 -45l-20 12
q42 78 88 114q55 42 135 42q49 0 116 -22l89 -29q52 -17 105 -17q75 0 126 65z" />
    <glyph glyph-name="Adieresis" unicode="&#xc4;" horiz-adv-x="1241" 
d="M0 0zM748 439h-435l-138 -401h181v-38h-363v38h131l466 1327h55l447 -1327h156v-38h-556v38h194zM735 477l-203 603l-205 -603h408zM401 1686q40 0 69 -29t29 -70t-29 -70t-70 -29t-70 29t-29 70q0 42 29 70q30 29 71 29zM834 1686q40 0 69 -29t29 -70t-29 -70t-70 -29
t-70 29t-29 70q0 42 29 70q30 29 71 29z" />
    <glyph glyph-name="Aring" unicode="&#xc5;" horiz-adv-x="1241" 
d="M0 0zM748 439h-435l-138 -401h181v-38h-363v38h131l466 1327h55l447 -1327h156v-38h-556v38h194zM735 477l-203 603l-205 -603h408zM617 1759q68 0 115 -55q37 -42 37 -103q0 -66 -45 -110q-44 -44 -110 -44q-73 0 -119 54q-36 42 -36 102q0 70 52 116q44 40 106 40z
M612 1704q-45 0 -75 -41q-21 -28 -21 -61q0 -44 34 -75q28 -25 63 -25q45 0 75 36q24 29 24 66q0 41 -31 72q-28 28 -69 28z" />
    <glyph glyph-name="AE" unicode="&#xc6;" horiz-adv-x="1727" 
d="M1563 1365l28 -370h-28q-38 171 -102 241q-56 61 -152 79q-58 12 -171 12h-174v-616h96q107 1 154 37q64 48 65 178v39h28v-560h-28v49q-1 109 -49 162q-48 55 -176 57h-90v-635h273q138 1 176 17q99 41 160 211q23 63 49 159h27l-40 -425h-1013v38h177v395h-434
l-191 -395h206v-38h-409v38h151l622 1289h-203v38h1048zM773 471v856l-418 -856h418z" />
    <glyph glyph-name="Ccedilla" unicode="&#xc7;" horiz-adv-x="1210" 
d="M673 -21l-29 -98h28q43 0 76 -9q85 -22 85 -99q0 -60 -63 -101q-66 -43 -146 -43q-88 0 -136 51q-32 33 -32 80q0 33 26 33q29 0 29 -58v-10q-1 -10 -1 -20q0 -19 23 -29q34 -14 70 -14q51 0 81 34q24 27 24 64q0 77 -107 102l32 119q-166 19 -292 126t-193 274
q-52 129 -52 290q0 295 159 492q179 222 434 222q137 0 254 -71q31 -19 74 -52l68 103h27v-354h-27q-22 78 -45.5 124t-66.5 90q-115 119 -286 119q-152 0 -249 -93q-62 -59 -85 -171q-25 -120 -25 -416q0 -208 9 -302q12 -138 62 -209q50 -72 143 -108q66 -25 136 -25
q185 0 303 153q51 66 104 206h27v-379h-27l-68 103q-176 -124 -344 -124z" />
    <glyph glyph-name="Egrave" unicode="&#xc8;" horiz-adv-x="1199" 
d="M68 0zM1035 1365l28 -370h-28q-38 171 -102 241q-56 61 -152 79q-58 12 -171 12h-174v-616h96q107 1 154 37q63 48 65 178v39h28v-560h-28v48q-1 109 -49 163q-49 55 -176 57h-90v-635h273q138 1 176 17q99 41 160 211q23 63 49 159h27l-40 -425h-1013v38h177v1289h-177
v38h967zM515 1707l265 -210q10 -8 10 -14q0 -8 -8 -8t-13 2l-453 191q-26 10 -26 24q0 15 27 15h198z" />
    <glyph glyph-name="Eacute" unicode="&#xc9;" horiz-adv-x="1199" 
d="M68 0zM1035 1365l28 -370h-28q-38 171 -102 241q-56 61 -152 79q-58 12 -171 12h-174v-616h96q107 1 154 37q63 48 65 178v39h28v-560h-28v48q-1 109 -49 163q-49 55 -176 57h-90v-635h273q138 1 176 17q99 41 160 211q23 63 49 159h27l-40 -425h-1013v38h177v1289h-177
v38h967zM735 1707h199q27 0 27 -15q0 -14 -26 -24l-453 -191q-6 -2 -13 -2q-8 0 -8 8q0 6 10 14z" />
    <glyph glyph-name="Ecircumflex" unicode="&#xca;" horiz-adv-x="1199" 
d="M68 0zM1035 1365l28 -370h-28q-38 171 -102 241q-56 61 -152 79q-58 12 -171 12h-174v-616h96q107 1 154 37q63 48 65 178v39h28v-560h-28v48q-1 109 -49 163q-49 55 -176 57h-90v-635h273q138 1 176 17q99 41 160 211q23 63 49 159h27l-40 -425h-1013v38h177v1289h-177
v38h967zM615 1576l-302 -100q-3 -1 -7 -1q-12 0 -12 7q0 4 11 13l310 222l310 -222q12 -9 12 -14q0 -6 -13 -6q-4 0 -7 1z" />
    <glyph glyph-name="Edieresis" unicode="&#xcb;" horiz-adv-x="1199" 
d="M68 0zM1035 1365l28 -370h-28q-38 171 -102 241q-56 61 -152 79q-58 12 -171 12h-174v-616h96q107 1 154 37q63 48 65 178v39h28v-560h-28v48q-1 109 -49 163q-49 55 -176 57h-90v-635h273q138 1 176 17q99 41 160 211q23 63 49 159h27l-40 -425h-1013v38h177v1289h-177
v38h967zM399 1686q40 0 69 -29t29 -70t-29 -70t-70 -29t-70 29t-29 70q0 42 29 70q30 29 71 29zM832 1686q40 0 69 -29t29 -70t-29 -70t-70 -29t-70 29t-29 70q0 42 29 70q30 29 71 29z" />
    <glyph glyph-name="Igrave" unicode="&#xcc;" horiz-adv-x="683" 
d="M246 38v1289h-177v38h546v-38h-178v-1289h178v-38h-546v38h177zM219 1707l238 -210q10 -8 10 -14q0 -8 -8 -8t-13 2l-419 191q-26 11 -26 24q0 15 27 15h191z" />
    <glyph glyph-name="Iacute" unicode="&#xcd;" horiz-adv-x="683" 
d="M245 38v1289h-177v38h546v-38h-178v-1289h178v-38h-546v38h177zM464 1707h191q27 0 27 -15q0 -13 -26 -24l-419 -191q-5 -2 -13 -2t-8 8q0 6 10 14z" />
    <glyph glyph-name="Icircumflex" unicode="&#xce;" horiz-adv-x="683" 
d="M246 38v1289h-177v38h546v-38h-178v-1289h178v-38h-546v38h177zM342 1576l-275 -100q-6 -2 -10 -2q-9 0 -9 6t11 15l283 222l282 -222q12 -10 12 -15q0 -6 -10 -6q-4 0 -9 2z" />
    <glyph glyph-name="Idieresis" unicode="&#xcf;" horiz-adv-x="683" 
d="M68 0zM245 38v1289h-177v38h546v-38h-178v-1289h178v-38h-546v38h177zM170 1686q40 0 69 -29t29 -70t-29 -70t-70 -29t-70 29t-29 70q0 42 29 70q30 29 71 29zM515 1686q40 0 69 -29t29 -70t-29 -70t-70 -29t-70 29t-29 70q0 42 29 70q30 29 71 29z" />
    <glyph glyph-name="Eth" unicode="&#xd0;" horiz-adv-x="1379" 
d="M245 676h-177v38h177v613h-177v38h508q224 0 349 -58q190 -88 282 -278q77 -156 77 -344q0 -300 -182 -497q-102 -110 -223 -153q-100 -35 -301 -35h-510v38h177v638zM436 676v-638h142q174 0 263 37q107 46 152 137q58 117 58 501q0 242 -30 365q-40 161 -201 219
q-84 30 -245 30h-139v-613h319v-38h-319z" />
    <glyph glyph-name="Ntilde" unicode="&#xd1;" horiz-adv-x="1390" 
d="M48 0zM1137 0l-864 1316v-1278h191v-38h-416v38h177v1289h-177v38h432l643 -987v949h-177v38h376v-38h-151v-1327h-34zM1024 1670l21 -11q-60 -94 -108 -124q-54 -33 -109 -33q-39 0 -105 21l-87 28q-64 20 -109 20q-52 0 -93 -21q-22 -11 -49 -45l-20 12q42 78 88 114
q55 42 135 42q49 0 116 -22l89 -29q52 -17 105 -17q75 0 126 65z" />
    <glyph glyph-name="Ograve" unicode="&#xd2;" horiz-adv-x="1352" 
d="M96 0zM683 1385q150 0 281 -90q152 -105 227 -275q66 -151 66 -337q0 -312 -177 -510q-172 -193 -403 -193q-253 0 -430 223q-151 192 -151 480q0 311 176 509q172 193 411 193zM671 1344q-135 0 -231 -87q-69 -62 -93 -180q-19 -93 -19 -394q0 -207 5 -284
q15 -209 107 -292q95 -86 237 -86q141 0 237 86q91 83 106 292q5 77 5 295q0 194 -6 272q-8 113 -32 179.5t-73 112.5q-94 86 -243 86zM549 1707l265 -210q10 -8 10 -14q0 -8 -8 -8t-13 2l-453 191q-26 10 -26 24q0 15 27 15h198z" />
    <glyph glyph-name="Oacute" unicode="&#xd3;" horiz-adv-x="1352" 
d="M96 0zM683 1385q150 0 281 -90q152 -105 227 -275q66 -151 66 -337q0 -312 -177 -510q-172 -193 -403 -193q-253 0 -430 223q-151 192 -151 480q0 311 176 509q172 193 411 193zM671 1344q-135 0 -231 -87q-69 -62 -93 -180q-19 -93 -19 -394q0 -207 5 -284
q15 -209 107 -292q95 -86 237 -86q141 0 237 86q91 83 106 292q5 77 5 295q0 194 -6 272q-8 113 -32 179.5t-73 112.5q-94 86 -243 86zM811 1707h199q27 0 27 -15q0 -14 -26 -24l-453 -191q-6 -2 -13 -2q-8 0 -8 8q0 6 10 14z" />
    <glyph glyph-name="Ocircumflex" unicode="&#xd4;" horiz-adv-x="1352" 
d="M96 0zM683 1385q150 0 281 -90q152 -105 227 -275q66 -151 66 -337q0 -312 -177 -510q-172 -193 -403 -193q-253 0 -430 223q-151 192 -151 480q0 311 176 509q172 193 411 193zM671 1344q-135 0 -231 -87q-69 -62 -93 -180q-19 -93 -19 -394q0 -207 5 -284
q15 -209 107 -292q95 -86 237 -86q141 0 237 86q91 83 106 292q5 77 5 295q0 194 -6 272q-8 113 -32 179.5t-73 112.5q-94 86 -243 86zM676 1576l-302 -100q-3 -1 -7 -1q-12 0 -12 7q0 4 11 13l310 222l310 -222q12 -9 12 -14q0 -6 -13 -6q-4 0 -7 1z" />
    <glyph glyph-name="Otilde" unicode="&#xd5;" horiz-adv-x="1352" 
d="M96 0zM683 1385q150 0 281 -90q152 -105 227 -275q66 -151 66 -337q0 -312 -177 -510q-172 -193 -403 -193q-253 0 -430 223q-151 192 -151 480q0 311 176 509q172 193 411 193zM671 1344q-135 0 -231 -87q-69 -62 -93 -180q-19 -93 -19 -394q0 -207 5 -284
q15 -209 107 -292q95 -86 237 -86q141 0 237 86q91 83 106 292q5 77 5 295q0 194 -6 272q-8 113 -32 179.5t-73 112.5q-94 86 -243 86zM1009 1670l21 -11q-60 -94 -108 -124q-54 -33 -109 -33q-39 0 -105 21l-87 28q-64 20 -109 20q-52 0 -93 -21q-22 -11 -49 -45l-20 12
q42 78 88 114q55 42 135 42q49 0 116 -22l89 -29q52 -17 105 -17q75 0 126 65z" />
    <glyph glyph-name="Odieresis" unicode="&#xd6;" horiz-adv-x="1352" 
d="M96 0zM683 1385q150 0 281 -90q152 -105 227 -275q66 -151 66 -337q0 -312 -177 -510q-172 -193 -403 -193q-253 0 -430 223q-151 192 -151 480q0 311 176 509q172 193 411 193zM671 1344q-135 0 -231 -87q-69 -62 -93 -180q-19 -93 -19 -394q0 -207 5 -284
q15 -209 107 -292q95 -86 237 -86q141 0 237 86q91 83 106 292q5 77 5 295q0 194 -6 272q-8 113 -32 179.5t-73 112.5q-94 86 -243 86zM461 1686q40 0 69 -29t29 -70t-29 -70t-70 -29t-70 29t-29 70q0 42 29 70q30 29 71 29zM894 1686q40 0 69 -29t29 -70t-29 -70t-70 -29
t-70 29t-29 70q0 42 29 70q30 29 71 29z" />
    <glyph glyph-name="multiply" unicode="&#xd7;" 
d="M512 618l-285 -285l-43 44l285 285l-286 285l44 44l286 -285l285 285l43 -44l-285 -285l285 -285l-44 -44z" />
    <glyph glyph-name="Oslash" unicode="&#xd8;" horiz-adv-x="1352" 
d="M1068 1206q52 -58 82 -108q107 -172 107 -416q0 -311 -177 -509q-172 -193 -404 -193q-155 0 -287 90q-35 25 -78 62l-110 -154l-32 26l111 160q-184 211 -184 518q0 312 177 510q172 193 404 193q197 0 359 -148l112 152l37 -24zM998 1112l-625 -909q13 -28 25 -46
q43 -67 124 -103q73 -33 155 -33q141 0 237 86q91 83 106 292q5 77 5 306q0 316 -27 407zM355 254l625 909q-12 27 -24 45q-44 67 -124 103q-73 33 -155 33q-143 0 -238 -86q-91 -83 -106 -292q-5 -77 -5 -295q0 -318 27 -417z" />
    <glyph glyph-name="Ugrave" unicode="&#xd9;" horiz-adv-x="1315" 
d="M41 0zM409 1327v-908q0 -131 17 -188q31 -106 123 -161q81 -49 190 -49q190 0 279 158q34 59 42 141q3 35 3 134v873h-164v38h362v-38h-150v-873q0 -127 -17 -195q-68 -279 -393 -279q-243 0 -363 111q-79 73 -105 200q-15 76 -15 218v818h-177v38h546v-38h-178z
M571 1707l265 -210q10 -8 10 -14q0 -8 -8 -8t-13 2l-453 191q-26 10 -26 24q0 15 27 15h198z" />
    <glyph glyph-name="Uacute" unicode="&#xda;" horiz-adv-x="1315" 
d="M41 0zM409 1327v-908q0 -131 17 -188q31 -106 123 -161q81 -49 190 -49q190 0 279 158q34 59 42 141q3 35 3 134v873h-164v38h362v-38h-150v-873q0 -127 -17 -195q-68 -279 -393 -279q-243 0 -363 111q-79 73 -105 200q-15 76 -15 218v818h-177v38h546v-38h-178z
M819 1707h199q27 0 27 -15q0 -14 -26 -24l-453 -191q-6 -2 -13 -2q-8 0 -8 8q0 6 10 14z" />
    <glyph glyph-name="Ucircumflex" unicode="&#xdb;" horiz-adv-x="1315" 
d="M41 0zM409 1327v-908q0 -131 17 -188q31 -106 123 -161q81 -49 190 -49q190 0 279 158q34 59 42 141q3 35 3 134v873h-164v38h362v-38h-150v-873q0 -127 -17 -195q-68 -279 -393 -279q-243 0 -363 111q-79 73 -105 200q-15 76 -15 218v818h-177v38h546v-38h-178z
M691 1576l-302 -100q-3 -1 -7 -1q-12 0 -12 7q0 4 11 13l310 222l310 -222q12 -9 12 -14q0 -6 -13 -6q-4 0 -7 1z" />
    <glyph glyph-name="Udieresis" unicode="&#xdc;" horiz-adv-x="1315" 
d="M41 0zM409 1327v-908q0 -131 17 -188q31 -106 123 -161q81 -49 190 -49q190 0 279 158q34 59 42 141q3 35 3 134v873h-164v38h362v-38h-150v-873q0 -127 -17 -195q-68 -279 -393 -279q-243 0 -363 111q-79 73 -105 200q-15 76 -15 218v818h-177v38h546v-38h-178z
M476 1686q40 0 69 -29t29 -70t-29 -70t-70 -29t-70 29t-29 70q0 42 29 70q30 29 71 29zM909 1686q40 0 69 -29t29 -70t-29 -70t-70 -29t-70 29t-29 70q0 42 29 70q30 29 71 29z" />
    <glyph glyph-name="Yacute" unicode="&#xdd;" horiz-adv-x="1129" 
d="M0 0zM679 639v-601h205v-38h-601v38h205v601l-412 688h-117v38h529v-38h-181l359 -604l313 604h-199v38h390v-38h-140zM748 1707h199q27 0 27 -15q0 -14 -26 -24l-453 -191q-6 -2 -13 -2q-8 0 -8 8q0 6 10 14z" />
    <glyph glyph-name="Thorn" unicode="&#xde;" horiz-adv-x="1186" 
d="M436 415v-377h192v-38h-560v38h177v1290h-177v37h560v-38h-192v-207h207q242 0 358 -95q126 -105 126 -264q0 -155 -135 -257q-118 -89 -349 -89h-207zM436 453h194q110 0 160 27q73 39 93 139q12 60 12 151q0 161 -36 223q-30 51 -89 72q-51 17 -141 17h-193v-629z" />
    <glyph glyph-name="germandbls" unicode="&#xdf;" horiz-adv-x="995" 
d="M331 38h98v-38h-392v38h137v783q0 211 43 315q62 147 172 213q61 36 140 36q94 0 141 -53q33 -36 33 -85q0 -29 -12 -51q-21 -40 -68 -40q-35 0 -54 23q-17 19 -17 51q0 22 13 54q8 20 8 27q0 12 -13 21q-18 12 -45 12q-94 0 -140 -104q-44 -98 -44 -320v-255
q51 68 97 96q87 52 221 52q92 0 153 -32q79 -41 79 -128q0 -101 -102 -143q-52 -22 -153 -29q114 -21 174 -54q56 -31 88.5 -84t32.5 -113q0 -98 -68 -172q-34 -35 -82.5 -57t-95.5 -22q-101 0 -158 73q-33 42 -33 96q0 29 12 49q21 35 59 35q28 0 47 -22q18 -20 18 -56
q0 -43 -24 -76q-9 -13 -9 -18q0 -14 21 -26q23 -14 49 -14q63 0 87 71q19 57 19 125q0 116 -52 183q-47 61 -153 64q-14 1 -45 1v37q75 0 118 16q50 20 74 66q18 33 18 68q0 54 -38 84q-37 30 -92 30q-62 0 -119.5 -25.5t-88.5 -67.5q-54 -73 -54 -256v-378z" />
    <glyph glyph-name="agrave" unicode="&#xe0;" horiz-adv-x="864" 
d="M82 0zM554 439v205q0 71 -35 100q-40 34 -109 34q-61 0 -116 -27q-52 -26 -52 -50q0 -8 14 -27q27 -36 27 -66q0 -29 -15 -51q-21 -32 -58 -32q-38 0 -59 30q-16 24 -16 59q0 67 66 121q93 77 233 77q135 0 214 -63q63 -51 63 -172v-459q0 -50 10 -66q14 -22 45 -22
q27 0 61 31l18 -23q-36 -27 -54 -37q-37 -22 -85 -22q-89 0 -126 68q-17 33 -26 99q-91 -166 -257 -166q-97 0 -152 46q-63 54 -63 143q0 74 48 133t136 94q95 38 288 43zM554 409q-103 -3 -152 -18q-164 -50 -164 -189q0 -66 38 -103q38 -36 94 -36q67 0 118 50
q50 49 61 132q5 41 5 96v68zM354 1256l197 -292q3 -6 3 -9q0 -7 -7 -7q-2 0 -10 7l-325 263q-16 13 -16 24q0 14 25 14h133z" />
    <glyph glyph-name="aacute" unicode="&#xe1;" horiz-adv-x="864" 
d="M82 0zM554 439v205q0 71 -35 100q-40 34 -109 34q-61 0 -116 -27q-52 -26 -52 -50q0 -8 14 -27q27 -36 27 -66q0 -29 -15 -51q-21 -32 -58 -32q-38 0 -59 30q-16 24 -16 59q0 67 66 121q93 77 233 77q135 0 214 -63q63 -51 63 -172v-459q0 -50 10 -66q14 -22 45 -22
q27 0 61 31l18 -23q-36 -27 -54 -37q-37 -22 -85 -22q-89 0 -126 68q-17 33 -26 99q-91 -166 -257 -166q-97 0 -152 46q-63 54 -63 143q0 74 48 133t136 94q95 38 288 43zM554 409q-103 -3 -152 -18q-164 -50 -164 -189q0 -66 38 -103q38 -36 94 -36q67 0 118 50
q50 49 61 132q5 41 5 96v68zM553 1256h134q25 0 25 -14q0 -11 -16 -24l-325 -263q-8 -7 -10 -7q-7 0 -7 7q0 4 3 9z" />
    <glyph glyph-name="acircumflex" unicode="&#xe2;" horiz-adv-x="864" 
d="M82 0zM554 439v205q0 71 -35 100q-40 34 -109 34q-61 0 -116 -27q-52 -26 -52 -50q0 -8 14 -27q27 -36 27 -66q0 -29 -15 -51q-21 -32 -58 -32q-38 0 -59 30q-16 24 -16 59q0 67 66 121q93 77 233 77q135 0 214 -63q63 -51 63 -172v-459q0 -50 10 -66q14 -22 45 -22
q27 0 61 31l18 -23q-36 -27 -54 -37q-37 -22 -85 -22q-89 0 -126 68q-17 33 -26 99q-91 -166 -257 -166q-97 0 -152 46q-63 54 -63 143q0 74 48 133t136 94q95 38 288 43zM554 409q-103 -3 -152 -18q-164 -50 -164 -189q0 -66 38 -103q38 -36 94 -36q67 0 118 50
q50 49 61 132q5 41 5 96v68zM451 1109l-274 -157q-6 -3 -12 -3q-7 0 -7 5q0 6 11 17l282 292l281 -292q11 -11 11 -16q0 -6 -7 -6q-6 0 -12 3z" />
    <glyph glyph-name="atilde" unicode="&#xe3;" horiz-adv-x="864" 
d="M82 0zM554 439v205q0 71 -35 100q-40 34 -109 34q-61 0 -116 -27q-52 -26 -52 -50q0 -8 14 -27q27 -36 27 -66q0 -29 -15 -51q-21 -32 -58 -32q-38 0 -59 30q-16 24 -16 59q0 67 66 121q93 77 233 77q135 0 214 -63q63 -51 63 -172v-459q0 -50 10 -66q14 -22 45 -22
q27 0 61 31l18 -23q-36 -27 -54 -37q-37 -22 -85 -22q-89 0 -126 68q-17 33 -26 99q-91 -166 -257 -166q-97 0 -152 46q-63 54 -63 143q0 74 48 133t136 94q95 38 288 43zM554 409q-103 -3 -152 -18q-164 -50 -164 -189q0 -66 38 -103q38 -36 94 -36q67 0 118 50
q50 49 61 132q5 41 5 96v68zM751 1171l19 -10q-54 -93 -97 -122q-49 -32 -98 -32q-35 0 -95 21l-78 27q-56 19 -97 19q-82 0 -129 -64l-18 12q37 75 79 111q50 41 122 41q45 0 104 -21l80 -29q46 -16 95 -16q67 0 113 63z" />
    <glyph glyph-name="adieresis" unicode="&#xe4;" horiz-adv-x="864" 
d="M82 0zM554 439v205q0 71 -35 100q-40 34 -109 34q-61 0 -116 -27q-52 -26 -52 -50q0 -8 14 -27q27 -36 27 -66q0 -29 -15 -51q-21 -32 -58 -32q-38 0 -59 30q-16 24 -16 59q0 67 66 121q93 77 233 77q135 0 214 -63q63 -51 63 -172v-459q0 -50 10 -66q14 -22 45 -22
q27 0 61 31l18 -23q-36 -27 -54 -37q-37 -22 -85 -22q-89 0 -126 68q-17 33 -26 99q-91 -166 -257 -166q-97 0 -152 46q-63 54 -63 143q0 74 48 133t136 94q95 38 288 43zM554 409q-103 -3 -152 -18q-164 -50 -164 -189q0 -66 38 -103q38 -36 94 -36q67 0 118 50
q50 49 61 132q5 41 5 96v68zM274 1195q40 0 69 -29t29 -70t-29 -70t-70 -29t-70 29t-29 70t29 70q30 29 71 29zM629 1195q40 0 69 -29t29 -70t-29 -70t-70 -29t-70 29t-29 70t29 70q30 29 71 29z" />
    <glyph glyph-name="aring" unicode="&#xe5;" horiz-adv-x="864" 
d="M82 0zM554 439v205q0 71 -35 100q-40 34 -109 34q-61 0 -116 -27q-52 -26 -52 -50q0 -8 14 -27q27 -36 27 -66q0 -29 -15 -51q-21 -32 -58 -32q-38 0 -59 30q-16 24 -16 59q0 67 66 121q93 77 233 77q135 0 214 -63q63 -51 63 -172v-459q0 -50 10 -66q14 -22 45 -22
q27 0 61 31l18 -23q-36 -27 -54 -37q-37 -22 -85 -22q-89 0 -126 68q-17 33 -26 99q-91 -166 -257 -166q-97 0 -152 46q-63 54 -63 143q0 74 48 133t136 94q95 38 288 43zM554 409q-103 -3 -152 -18q-164 -50 -164 -189q0 -66 38 -103q38 -36 94 -36q67 0 118 50
q50 49 61 132q5 41 5 96v68zM453 1260q68 0 115 -54q37 -43 37 -103q0 -66 -45 -110q-44 -44 -110 -44q-73 0 -119 54q-36 42 -36 101q0 71 52 116q44 40 106 40zM448 1205q-45 0 -75 -41q-21 -28 -21 -60q0 -44 34 -75q27 -25 63 -25q45 0 75 36q24 28 24 65q0 41 -31 72
q-29 28 -69 28z" />
    <glyph glyph-name="ae" unicode="&#xe6;" horiz-adv-x="1326" 
d="M673 724q106 89 234 89q111 0 202 -65q138 -97 145 -281h-543v-157q0 -109 14 -156q41 -134 197 -134q134 0 221 102q46 55 64 143h41q-19 -110 -87 -183q-95 -103 -237 -103q-79 0 -156 33.5t-125 89.5q-26 31 -69 99q-16 -55 -43 -95q-86 -126 -234 -126q-97 0 -152 46
q-63 53 -63 142q0 74 48 133.5t136 94.5q96 38 288 43v205q0 72 -35 100q-40 34 -109 34q-61 0 -116 -27q-52 -26 -52 -50q0 -8 14 -27q27 -36 27 -65q0 -30 -15 -52q-21 -31 -58 -31q-38 0 -59 30q-16 24 -16 59q0 66 66 120q93 77 234 77q163 0 238 -88zM554 409
q-104 -3 -152 -18q-164 -50 -164 -190q0 -65 38 -102q38 -36 94 -36q67 0 118 50q50 49 61 132q5 41 5 96v68zM1069 505v87q0 95 -38 134q-42 46 -133 46q-83 0 -131 -40q-56 -46 -56 -157v-70h358z" />
    <glyph glyph-name="ccedilla" unicode="&#xe7;" horiz-adv-x="825" 
d="M457 -20l-28 -96q20 1 29 1q38 0 70 -8q81 -22 81 -96q0 -59 -60 -98q-62 -42 -139 -42q-84 0 -129 49q-30 32 -30 77q0 32 24 32q28 0 27 -65q0 -21 1 -27q3 -15 33 -25q27 -9 56 -9q47 0 75 33q23 26 23 61q0 74 -102 99l31 117q-104 16 -183 80q-75 61 -115 149
q-39 85 -39 181q0 170 117 295t297 125q150 0 230 -90q45 -52 45 -116q0 -29 -12 -53q-22 -44 -71 -44q-39 0 -60 30q-20 29 -20 68q0 54 35 89q13 13 13 20q0 19 -37 34q-55 22 -122 22q-145 0 -192 -101q-32 -69 -32 -205v-130q0 -174 38 -233q53 -84 163 -84
q136 0 223 100q42 48 67 138h41q-23 -84 -47 -125q-54 -90 -153 -130q-60 -24 -126 -24q-7 0 -22 1z" />
    <glyph glyph-name="egrave" unicode="&#xe8;" horiz-adv-x="884" 
d="M82 0zM269 467v-157q0 -109 14 -156q41 -134 197 -134q134 0 221 102q46 55 64 143h41q-19 -110 -87 -183q-95 -103 -238 -103q-160 0 -280 123q-119 123 -119 291q0 148 97 273q114 146 285 146q112 0 203 -64q138 -97 145 -281h-543zM627 505v87q0 94 -38 134
q-43 45 -133 45q-83 0 -131 -39q-56 -47 -56 -157v-70h358zM385 1256l197 -292q3 -6 3 -9q0 -7 -7 -7q-2 0 -10 7l-325 263q-16 13 -16 24q0 14 25 14h133z" />
    <glyph glyph-name="eacute" unicode="&#xe9;" horiz-adv-x="884" 
d="M82 0zM269 467v-157q0 -109 14 -156q41 -134 197 -134q134 0 221 102q46 55 64 143h41q-19 -110 -87 -183q-95 -103 -238 -103q-160 0 -280 123q-119 123 -119 291q0 148 97 273q114 146 285 146q112 0 203 -64q138 -97 145 -281h-543zM627 505v87q0 94 -38 134
q-43 45 -133 45q-83 0 -131 -39q-56 -47 -56 -157v-70h358zM570 1256h134q25 0 25 -14q0 -11 -16 -24l-325 -263q-8 -7 -10 -7q-7 0 -7 7q0 4 3 9z" />
    <glyph glyph-name="ecircumflex" unicode="&#xea;" horiz-adv-x="884" 
d="M82 0zM269 467v-157q0 -109 14 -156q41 -134 197 -134q134 0 221 102q46 55 64 143h41q-19 -110 -87 -183q-95 -103 -238 -103q-160 0 -280 123q-119 123 -119 291q0 148 97 273q114 146 285 146q112 0 203 -64q138 -97 145 -281h-543zM627 505v87q0 94 -38 134
q-43 45 -133 45q-83 0 -131 -39q-56 -47 -56 -157v-70h358zM468 1109l-274 -157q-6 -3 -12 -3q-7 0 -7 5q0 6 11 17l282 292l281 -292q11 -11 11 -16q0 -6 -7 -6q-6 0 -12 3z" />
    <glyph glyph-name="edieresis" unicode="&#xeb;" horiz-adv-x="884" 
d="M82 0zM269 467v-157q0 -109 14 -156q41 -134 197 -134q134 0 221 102q46 55 64 143h41q-19 -110 -87 -183q-95 -103 -238 -103q-160 0 -280 123q-119 123 -119 291q0 148 97 273q114 146 285 146q112 0 203 -64q138 -97 145 -281h-543zM627 505v87q0 94 -38 134
q-43 45 -133 45q-83 0 -131 -39q-56 -47 -56 -157v-70h358zM291 1195q40 0 69 -29t29 -70t-29 -70t-70 -29t-70 29t-29 70t29 70q30 29 71 29zM646 1195q40 0 69 -29t29 -70t-29 -70t-70 -29t-70 29t-29 70t29 70q30 29 71 29z" />
    <glyph glyph-name="igrave" unicode="&#xec;" horiz-adv-x="542" 
d="M10 0zM369 792v-754h136v-38h-430v38h137v716h-137v38h294zM168 1256l197 -292q3 -6 3 -9q0 -7 -7 -7q-2 0 -10 7l-325 263q-16 13 -16 24q0 14 25 14h133z" />
    <glyph glyph-name="iacute" unicode="&#xed;" horiz-adv-x="542" 
d="M75 0zM369 792v-754h136v-38h-430v38h137v716h-137v38h294zM365 1256h134q25 0 25 -14q0 -11 -16 -24l-325 -263q-8 -7 -10 -7q-7 0 -7 7q0 4 3 9z" />
    <glyph glyph-name="icircumflex" unicode="&#xee;" horiz-adv-x="542" 
d="M369 792v-754h136v-38h-430v38h137v716h-137v38h294zM274 1109l-234 -157q-5 -3 -11 -3q-7 0 -7 5t10 17l242 292l241 -292q10 -11 10 -16q0 -6 -7 -6q-6 0 -10 3z" />
    <glyph glyph-name="idieresis" unicode="&#xef;" horiz-adv-x="542" 
d="M31 0zM369 792v-754h136v-38h-430v38h137v716h-137v38h294zM127 1187q38 0 66 -28t28 -67t-28 -67t-67 -28t-67 28t-28 67q0 40 28 67q28 28 68 28zM424 1187q38 0 66 -28t28 -67t-28 -67t-67 -28t-67 28t-28 67q0 40 28 67q28 28 68 28z" />
    <glyph glyph-name="eth" unicode="&#xf0;" horiz-adv-x="963" 
d="M286 1113l158 107q-55 64 -157 144l21 28q41 -24 92.5 -65t86.5 -78l162 111l20 -33l-150 -105q140 -149 225 -308q138 -255 138 -490q0 -232 -146 -352q-111 -92 -251 -92q-186 0 -306 143q-97 117 -97 270q0 90 37 175t103 145q108 100 261 100q77 0 169 -40
q-51 228 -186 414l-158 -109zM273 446v-100q3 -124 6 -154q9 -90 65 -131q55 -40 137 -40q139 0 186 100q24 50 24 225v100q0 189 -32 240q-52 86 -178 86q-141 0 -186 -100q-17 -36 -22 -226z" />
    <glyph glyph-name="ntilde" unicode="&#xf1;" horiz-adv-x="1071" 
d="M75 0zM369 792v-118q47 55 84 81q80 57 183 57q132 0 206 -82q55 -62 55 -188v-504h137v-38h-430v38h136v558q0 168 -133 168q-77 0 -143 -52q-68 -54 -84 -155q-11 -65 -11 -193v-326h136v-38h-430v38h137v716h-137v38h294zM841 1171l19 -10q-54 -93 -97 -122
q-49 -32 -98 -32q-35 0 -95 21l-78 27q-56 19 -97 19q-82 0 -129 -64l-18 12q37 75 79 111q50 41 122 41q45 0 104 -21l80 -29q46 -16 95 -16q67 0 113 63z" />
    <glyph glyph-name="ograve" unicode="&#xf2;" horiz-adv-x="963" 
d="M82 0zM487 812q155 0 271 -114q124 -122 124 -302t-124 -302q-115 -114 -276 -114t-276 114q-124 123 -124 301q0 86 33 166.5t91 136.5q118 114 281 114zM273 446v-100q3 -124 6 -154q9 -90 65 -131q55 -40 137 -40q139 0 186 100q24 50 24 225v100q0 188 -32 239
q-52 86 -178 86q-82 0 -137 -40q-56 -41 -65 -131q-3 -31 -6 -154zM392 1256l197 -292q3 -6 3 -9q0 -7 -7 -7q-2 0 -10 7l-325 263q-16 13 -16 24q0 14 25 14h133z" />
    <glyph glyph-name="oacute" unicode="&#xf3;" horiz-adv-x="963" 
d="M82 0zM487 812q155 0 271 -114q124 -122 124 -302t-124 -302q-115 -114 -276 -114t-276 114q-124 123 -124 301q0 86 33 166.5t91 136.5q118 114 281 114zM273 446v-100q3 -124 6 -154q9 -90 65 -131q55 -40 137 -40q139 0 186 100q24 50 24 225v100q0 188 -32 239
q-52 86 -178 86q-82 0 -137 -40q-56 -41 -65 -131q-3 -31 -6 -154zM598 1256h134q25 0 25 -14q0 -11 -16 -24l-325 -263q-8 -7 -10 -7q-7 0 -7 7q0 4 3 9z" />
    <glyph glyph-name="ocircumflex" unicode="&#xf4;" horiz-adv-x="963" 
d="M82 0zM487 812q155 0 271 -114q124 -122 124 -302t-124 -302q-115 -114 -276 -114t-276 114q-124 123 -124 301q0 86 33 166.5t91 136.5q118 114 281 114zM273 446v-100q3 -124 6 -154q9 -90 65 -131q55 -40 137 -40q139 0 186 100q24 50 24 225v100q0 188 -32 239
q-52 86 -178 86q-82 0 -137 -40q-56 -41 -65 -131q-3 -31 -6 -154zM482 1109l-274 -157q-6 -3 -12 -3q-7 0 -7 5q0 6 11 17l282 292l281 -292q11 -11 11 -16q0 -6 -7 -6q-6 0 -12 3z" />
    <glyph glyph-name="otilde" unicode="&#xf5;" horiz-adv-x="963" 
d="M82 0zM487 812q155 0 271 -114q124 -122 124 -302t-124 -302q-115 -114 -276 -114t-276 114q-124 123 -124 301q0 86 33 166.5t91 136.5q118 114 281 114zM273 446v-100q3 -124 6 -154q9 -90 65 -131q55 -40 137 -40q139 0 186 100q24 50 24 225v100q0 188 -32 239
q-52 86 -178 86q-82 0 -137 -40q-56 -41 -65 -131q-3 -31 -6 -154zM782 1171l19 -10q-54 -93 -97 -122q-49 -32 -98 -32q-35 0 -95 21l-78 27q-56 19 -97 19q-82 0 -129 -64l-18 12q37 75 79 111q50 41 122 41q45 0 104 -21l80 -29q46 -16 95 -16q67 0 113 63z" />
    <glyph glyph-name="odieresis" unicode="&#xf6;" horiz-adv-x="963" 
d="M82 0zM487 812q155 0 271 -114q124 -122 124 -302t-124 -302q-115 -114 -276 -114t-276 114q-124 123 -124 301q0 86 33 166.5t91 136.5q118 114 281 114zM273 446v-100q3 -124 6 -154q9 -90 65 -131q55 -40 137 -40q139 0 186 100q24 50 24 225v100q0 188 -32 239
q-52 86 -178 86q-82 0 -137 -40q-56 -41 -65 -131q-3 -31 -6 -154zM305 1195q40 0 69 -29t29 -70t-29 -70t-70 -29t-70 29t-29 70t29 70q30 29 71 29zM660 1195q40 0 69 -29t29 -70t-29 -70t-70 -29t-70 29t-29 70t29 70q30 29 71 29z" />
    <glyph glyph-name="divide" unicode="&#xf7;" 
d="M513 1024q33 0 57 -24t24 -58t-24 -58t-58 -24t-58 24t-24 58q0 35 24 58q24 24 59 24zM513 465q33 0 57 -24t24 -58t-24 -58t-58 -24t-58 24t-24 58q0 35 24 58q25 24 59 24zM919 693v-62h-814v62h814z" />
    <glyph glyph-name="oslash" unicode="&#xf8;" horiz-adv-x="963" 
d="M742 713q19 -15 34 -34q106 -125 106 -282q0 -181 -124 -303q-115 -114 -276 -114q-131 0 -246 86l-86 -114l-28 25l86 115q-126 129 -126 304q0 180 124 302q115 114 275 114q126 0 231 -75l86 115l32 -22zM677 641l-384 -516q47 -104 187 -104t187 100q24 50 24 225
v100q-2 135 -14 195zM281 171l379 514q-61 86 -179 86q-82 0 -137 -40q-56 -41 -65 -131q-2 -30 -6 -154v-100q0 -89 8 -175z" />
    <glyph glyph-name="ugrave" unicode="&#xf9;" horiz-adv-x="1047" 
d="M37 0zM873 792v-754h137v-38h-294v124q-38 -55 -73 -82q-78 -62 -198 -62q-160 0 -227 88q-44 60 -44 200v486h-137v38h294v-552q0 -104 21 -149q29 -63 121 -63q79 0 141 43q71 49 88 154q14 81 14 184v345h-136v38h293zM420 1256l197 -292q3 -6 3 -9q0 -7 -7 -7
q-2 0 -10 7l-325 263q-16 13 -16 24q0 14 25 14h133z" />
    <glyph glyph-name="uacute" unicode="&#xfa;" horiz-adv-x="1047" 
d="M37 0zM873 792v-754h137v-38h-294v124q-38 -55 -73 -82q-78 -62 -198 -62q-160 0 -227 88q-44 60 -44 200v486h-137v38h294v-552q0 -104 21 -149q29 -63 121 -63q79 0 141 43q71 49 88 154q14 81 14 184v345h-136v38h293zM619 1256h134q25 0 25 -14q0 -11 -16 -24
l-325 -263q-8 -7 -10 -7q-7 0 -7 7q0 4 3 9z" />
    <glyph glyph-name="ucircumflex" unicode="&#xfb;" horiz-adv-x="1047" 
d="M37 0zM873 792v-754h137v-38h-294v124q-38 -55 -73 -82q-78 -62 -198 -62q-160 0 -227 88q-44 60 -44 200v486h-137v38h294v-552q0 -104 21 -149q29 -63 121 -63q79 0 141 43q71 49 88 154q14 81 14 184v345h-136v38h293zM517 1109l-274 -157q-6 -3 -12 -3q-7 0 -7 5
q0 6 11 17l282 292l281 -292q11 -11 11 -16q0 -6 -7 -6q-6 0 -12 3z" />
    <glyph glyph-name="udieresis" unicode="&#xfc;" horiz-adv-x="1047" 
d="M37 0zM873 792v-754h137v-38h-294v124q-38 -55 -73 -82q-78 -62 -198 -62q-160 0 -227 88q-44 60 -44 200v486h-137v38h294v-552q0 -104 21 -149q29 -63 121 -63q79 0 141 43q71 49 88 154q14 81 14 184v345h-136v38h293zM340 1195q40 0 69 -29t29 -70t-29 -70t-70 -29
t-70 29t-29 70t29 70q30 29 71 29zM695 1195q40 0 69 -29t29 -70t-29 -70t-70 -29t-70 29t-29 70t29 70q30 29 71 29z" />
    <glyph glyph-name="yacute" unicode="&#xfd;" horiz-adv-x="847" 
d="M0 0zM511 192l193 562h-143v38h286v-38h-90l-387 -1101q-37 -105 -80 -157q-46 -56 -120 -56q-42 0 -71 22q-42 32 -42 86q0 41 25 68t64 27q46 0 87 -53q11 -15 29 -15q25 0 40 26q11 19 28 69l111 318l-345 766h-96v38h416v-38h-139zM545 1256h134q25 0 25 -14
q0 -11 -16 -24l-325 -263q-8 -7 -10 -7q-7 0 -7 7q0 4 3 9z" />
    <glyph glyph-name="thorn" unicode="&#xfe;" horiz-adv-x="1002" 
d="M331 1365v-739q36 74 76 114q71 72 179 72q124 0 213 -88q122 -122 122 -314q0 -204 -132 -341q-86 -89 -206 -89q-118 0 -188 86q-31 37 -64 102v-676h163v-38h-457v38h137v1835h-137v38h294zM730 360v149q0 133 -21 183q-34 79 -132 79q-112 0 -180 -112
q-62 -102 -62 -272q0 -164 70 -266q68 -101 163 -101q110 0 140 112q22 81 22 228z" />
    <glyph glyph-name="ydieresis" unicode="&#xff;" horiz-adv-x="847" 
d="M0 0zM511 192l193 562h-143v38h286v-38h-90l-387 -1101q-37 -105 -80 -157q-46 -56 -120 -56q-42 0 -71 22q-42 32 -42 86q0 41 25 68t64 27q46 0 87 -53q11 -15 29 -15q25 0 40 26q11 19 28 69l111 318l-345 766h-96v38h416v-38h-139zM261 1195q40 0 69 -29t29 -70
t-29 -70t-70 -29t-70 29t-29 70t29 70q30 29 71 29zM616 1195q40 0 69 -29t29 -70t-29 -70t-70 -29t-70 29t-29 70t29 70q30 29 71 29z" />
    <glyph glyph-name="Cacute" unicode="&#x106;" horiz-adv-x="1210" 
d="M96 0zM820 1707h199q27 0 27 -15q0 -14 -26 -24l-453 -191q-6 -2 -13 -2q-8 0 -8 8q0 6 10 14zM1112 1365v-354h-27q-22 78 -45.5 124t-66.5 90q-115 119 -286 119q-152 0 -249 -93q-62 -59 -85 -171q-25 -120 -25 -416q0 -208 9 -302q12 -138 62 -209q50 -72 143 -108
q66 -25 136 -25q185 0 303 153q51 66 104 206h27v-379h-27l-68 103q-69 -47 -118 -71q-110 -53 -225 -53q-140 0 -265 78q-155 98 -244 285q-69 146 -69 329q0 295 159 492q179 222 434 222q137 0 254 -71q31 -19 74 -52l68 103h27z" />
    <glyph glyph-name="cacute" unicode="&#x107;" horiz-adv-x="825" 
d="M82 0zM587 1256h134q25 0 25 -14q0 -11 -16 -24l-325 -263q-8 -7 -10 -7q-7 0 -7 7q0 4 3 9zM805 258q-32 -118 -84 -175q-97 -104 -247 -104q-172 0 -286 130q-106 120 -106 284q0 170 117 295t297 125q150 0 230 -90q45 -52 45 -116q0 -29 -12 -53q-22 -44 -71 -44
q-39 0 -60 30q-20 29 -20 68q0 54 35 89q13 13 13 20q0 19 -37 34q-55 22 -122 22q-145 0 -192 -101q-32 -69 -32 -205v-130q0 -174 38 -233q53 -84 163 -84q136 0 223 100q42 48 67 138h41z" />
    <glyph glyph-name="Ccaron" unicode="&#x10c;" horiz-adv-x="1210" 
d="M96 0zM688 1616l302 100q5 1 9 1q11 0 11 -7q0 -4 -12 -13l-310 -222l-310 222q-11 8 -11 13q0 7 10 7q4 0 9 -1zM1112 1365v-354h-27q-22 78 -45.5 124t-66.5 90q-115 119 -286 119q-152 0 -249 -93q-62 -59 -85 -171q-25 -120 -25 -416q0 -208 9 -302q12 -138 62 -209
q50 -72 143 -108q66 -25 136 -25q185 0 303 153q51 66 104 206h27v-379h-27l-68 103q-69 -47 -118 -71q-110 -53 -225 -53q-140 0 -265 78q-155 98 -244 285q-69 146 -69 329q0 295 159 492q179 222 434 222q137 0 254 -71q31 -19 74 -52l68 103h27z" />
    <glyph glyph-name="ccaron" unicode="&#x10d;" horiz-adv-x="825" 
d="M82 0zM484 1103l274 157q6 3 12 3q7 0 7 -5q0 -6 -11 -18l-282 -291l-281 291q-11 12 -11 17q0 6 7 6q6 0 12 -3zM805 258q-32 -118 -84 -175q-97 -104 -247 -104q-172 0 -286 130q-106 120 -106 284q0 170 117 295t297 125q150 0 230 -90q45 -52 45 -116q0 -29 -12 -53
q-22 -44 -71 -44q-39 0 -60 30q-20 29 -20 68q0 54 35 89q13 13 13 20q0 19 -37 34q-55 22 -122 22q-145 0 -192 -101q-32 -69 -32 -205v-130q0 -174 38 -233q53 -84 163 -84q136 0 223 100q42 48 67 138h41z" />
    <glyph glyph-name="dmacron" unicode="&#x111;" horiz-adv-x="1006" 
d="M833 1063v-1025h136v-38h-293v172q-40 -83 -77 -121q-68 -71 -170 -71q-155 0 -257 130q-90 115 -90 287q0 157 76 269q99 146 265 146q102 0 170 -65q42 -40 83 -118v434h-284v37h284v227h-164v38h321v-265h136v-37h-136zM273 478v-140q0 -163 25 -224q38 -93 137 -93
q101 0 168 102t67 271q0 160 -58 260q-69 117 -184 117q-102 0 -135 -94q-20 -54 -20 -199z" />
    <glyph glyph-name="Gbreve" unicode="&#x11e;" horiz-adv-x="1300" 
d="M96 0zM982 1717q-15 -82 -72 -143q-89 -95 -234 -95q-157 0 -247 109q-46 55 -59 129h28q29 -71 84 -96q75 -35 194 -35q118 0 194 35q54 25 83 96h29zM1087 1365v-401h-27q-95 380 -393 380q-126 0 -210 -70q-64 -53 -91 -153q-38 -139 -38 -474q0 -317 35 -425
q64 -202 275 -202q205 0 263 195q18 63 19 219h-213v38h573v-38h-137q-14 -92 -30 -145q-46 -149 -182 -236q-117 -74 -267 -74q-251 0 -416 214q-152 199 -152 479q0 331 201 541q165 172 381 172q159 0 313 -106l69 86h27z" />
    <glyph glyph-name="gbreve" unicode="&#x11f;" horiz-adv-x="895" 
d="M55 0zM710 1249q-13 -102 -62 -175q-79 -119 -207 -119q-138 0 -219 136q-40 68 -51 158h23q25 -96 74 -135q63 -49 173 -49q109 0 172 49q49 39 74 135h23zM684 701q60 -83 60 -179q0 -114 -82 -193q-92 -89 -229 -89q-81 0 -158 34q-147 -88 -147 -163q0 -73 141 -73
h319q93 0 130 -11q124 -34 124 -205q0 -152 -96 -255q-117 -127 -323 -127q-166 0 -279 78q-89 61 -89 162q0 70 49 117q32 30 105 62q-154 42 -154 183q0 99 92 184q13 11 67 49l28 20q-59 46 -83 87q-39 66 -39 147q0 123 88 202q88 81 225 81q93 0 164 -40q26 -16 64 -49
q36 34 60 50q40 27 84 27q39 0 64 -22q25 -21 25 -58q0 -74 -62 -74q-49 0 -60 69q-3 23 -27 23q-25 0 -61 -37zM288 590v-123q0 -107 25 -142q31 -44 118 -44q79 0 110 33q33 35 33 153v133q0 100 -24 131q-31 40 -119 40q-76 0 -109 -36q-34 -39 -34 -145zM241 -143
q-76 -74 -76 -158q0 -83 58 -144q70 -74 209 -74q189 0 291 124q64 77 64 162q0 64 -46 80q-28 10 -143 10h-242h-75h-40z" />
    <glyph glyph-name="Idot" unicode="&#x130;" horiz-adv-x="683" 
d="M68 0zM342 1693q42 0 73 -30q30 -31 30 -74t-30 -73q-31 -31 -74 -31t-73 31q-31 30 -31 73q0 44 31 74q30 30 74 30zM245 38v1289h-177v38h546v-38h-178v-1289h178v-38h-546v38h177z" />
    <glyph glyph-name="dotlessi" unicode="&#x131;" horiz-adv-x="542" 
d="M369 792v-754h136v-38h-430v38h137v716h-137v38h294z" />
    <glyph glyph-name="Lslash" unicode="&#x141;" horiz-adv-x="1161" 
d="M245 550l-177 -133v51l177 134v725h-177v38h546v-38h-178v-612l356 268v-52l-356 -267v-626h293q125 1 178 33q115 67 172 349h28l-28 -420h-1011v38h177v512z" />
    <glyph glyph-name="lslash" unicode="&#x142;" horiz-adv-x="504" 
d="M173 718v609h-157v38h314v-563l157 118v-51l-157 -118v-713h157v-38h-471v38h157v629l-157 -118v51z" />
    <glyph glyph-name="OE" unicode="&#x152;" horiz-adv-x="1889" 
d="M1725 1365l28 -370h-28q-38 171 -102 241q-56 61 -152 79q-57 12 -170 12h-174v-616h96q107 1 154 37q63 48 65 178v39h27v-560h-27v48q-1 109 -49 163q-48 55 -176 57h-90v-635h273q136 1 175 17q99 41 159 211q24 63 50 159h27l-40 -425h-871q-92 -20 -168 -20
q-297 0 -485 238q-151 191 -151 459q0 200 83 364q91 177 267 272q136 73 289 73q68 0 165 -21h825zM936 1307q-127 38 -210 38q-179 0 -285 -98q-42 -39 -63 -87t-31 -125q-6 -54 -13 -198.5t-7 -225.5q0 -334 80 -450q98 -140 320 -140q99 0 209 42v1244z" />
    <glyph glyph-name="oe" unicode="&#x153;" horiz-adv-x="1483" 
d="M782 124q-14 -18 -25 -31q-49 -52 -124 -82.5t-152 -30.5q-160 0 -275 113q-124 123 -124 303t124 303q115 113 275 113q77 0 151 -30.5t125 -82.5q9 -10 23 -29q50 68 124.5 105.5t158.5 37.5q111 0 202 -65q138 -97 145 -281h-543v-157q0 -109 14 -156
q41 -134 197 -134q134 0 221 102q46 55 64 143h41q-19 -110 -87 -183q-95 -103 -237 -103q-79 0 -156 33.5t-124 89.5q-6 6 -18 22zM270 446v-101q0 -187 32 -238q52 -86 178 -86q139 0 186 100q24 50 24 224v101q0 188 -32 239q-52 86 -178 86q-139 0 -186 -100
q-24 -50 -24 -225zM1225 505v87q0 94 -38 134q-42 46 -133 46q-83 0 -131 -40q-56 -46 -56 -157v-70h358z" />
    <glyph glyph-name="Scedilla" unicode="&#x15e;" horiz-adv-x="1027" 
d="M507 -20l-29 -99h28q42 0 75 -9q86 -22 86 -99q0 -60 -63 -101q-66 -43 -146 -43q-88 0 -136 51q-32 33 -32 80q0 33 26 33q29 0 29 -58v-10q-1 -13 -1 -20q0 -19 23 -29q34 -14 70 -14q51 0 81 34q24 27 24 64q0 77 -107 102l32 121q-137 16 -256 131l-72 -114h-27
l-14 424h41q23 -147 76 -227q54 -83 137 -130q83 -46 178 -46q144 0 228 95q72 81 72 206t-75 189q-59 50 -178 82l-158 42q-168 45 -236 140q-59 82 -59 205q0 176 110 293q106 113 263 113q134 0 263 -91l64 89h27l3 -353h-41q-18 117 -64 183q-93 130 -261 130
q-97 0 -170 -57q-97 -75 -97 -192q0 -85 53 -132q63 -56 221 -97l109 -28q163 -42 239 -130q85 -98 85 -264q0 -171 -84 -299q-109 -165 -337 -165z" />
    <glyph glyph-name="scedilla" unicode="&#x15f;" horiz-adv-x="729" 
d="M380 -20l-26 -96q19 1 29 1q38 0 69 -8q82 -22 82 -96q0 -59 -60 -98q-62 -42 -139 -42q-85 0 -130 49q-30 32 -30 77q0 32 24 32q28 0 27 -65q0 -21 1 -27q3 -15 33 -25q28 -9 56 -9q47 0 76 33q23 26 23 61q0 74 -103 99l31 118q-83 17 -170 94l-47 -78h-20v303h34
q21 -104 56 -158q79 -125 212 -125q78 0 131 47q55 49 55 112q0 98 -131 124l-158 32q-98 19 -145 85q-46 64 -46 147q0 109 69 178q67 67 177 67q100 0 200 -77l28 73h27v-236h-34q-18 89 -69 137q-68 62 -163 62q-70 0 -121 -40q-52 -42 -52 -102q0 -46 41 -67
q45 -22 118 -37l91 -18q118 -24 169 -77q63 -66 63 -180q0 -140 -98 -219q-65 -52 -157 -52q-7 0 -23 1z" />
    <glyph glyph-name="Scaron" unicode="&#x160;" horiz-adv-x="1027" 
d="M98 0zM851 1384l3 -353h-41q-18 117 -64 183q-93 130 -261 130q-97 0 -170 -57q-97 -75 -97 -192q0 -85 53 -132q63 -56 221 -97l109 -28q163 -42 239 -130q85 -98 85 -264q0 -171 -84 -299q-109 -165 -319 -165q-122 0 -222 61q-36 22 -92 73l-72 -114h-27l-14 424h41
q23 -147 76 -227q54 -83 137 -130q83 -46 178 -46q144 0 228 95q72 81 72 206t-75 189q-59 50 -178 82l-158 42q-168 45 -236 140q-59 82 -59 205q0 176 110 293q106 113 263 113q134 0 263 -91l64 89h27zM512 1616l302 100q5 1 9 1q11 0 11 -7q0 -4 -12 -13l-310 -222
l-310 222q-11 8 -11 13q0 7 10 7q4 0 9 -1z" />
    <glyph glyph-name="scaron" unicode="&#x161;" horiz-adv-x="730" 
d="M93 0zM616 808v-236h-34q-18 89 -69 137q-68 62 -163 62q-70 0 -121 -40q-52 -42 -52 -102q0 -46 41 -67q45 -22 118 -37l91 -18q118 -24 169 -77q63 -66 63 -180q0 -99 -54 -172q-72 -99 -204 -99q-77 0 -142 36q-33 18 -85 63l-47 -78h-20v303h34q21 -104 56 -158
q79 -125 212 -125q78 0 131 47q55 49 55 112q0 98 -131 124l-158 32q-98 19 -145 85q-46 64 -46 147q0 109 69 178q67 67 177 67q100 0 200 -77l28 73h27zM385 1103l274 157q6 3 12 3q7 0 7 -5q0 -6 -11 -18l-282 -291l-281 291q-11 12 -11 17q0 6 7 6q6 0 12 -3z" />
    <glyph glyph-name="Ydieresis" unicode="&#x178;" horiz-adv-x="1129" 
d="M0 0zM679 639v-601h205v-38h-601v38h205v601l-412 688h-117v38h529v-38h-181l359 -604l313 604h-199v38h390v-38h-140zM397 1686q40 0 69 -29t29 -70t-29 -70t-70 -29t-70 29t-29 70q0 42 29 70q30 29 71 29zM830 1686q40 0 69 -29t29 -70t-29 -70t-70 -29t-70 29t-29 70
q0 42 29 70q30 29 71 29z" />
    <glyph glyph-name="Zcaron" unicode="&#x17d;" horiz-adv-x="1143" 
d="M61 0zM1050 0h-989v49l786 1278h-374q-96 -1 -154 -41q-70 -51 -113 -161q-23 -57 -53 -175h-28l41 415h922l-803 -1327h397q118 1 163 19q90 36 150 164q31 68 66 206h27zM626 1616l302 100q5 1 9 1q11 0 11 -7q0 -4 -12 -13l-310 -222l-310 222q-11 8 -11 13q0 7 10 7
q4 0 9 -1z" />
    <glyph glyph-name="zcaron" unicode="&#x17e;" horiz-adv-x="821" 
d="M63 0zM750 0h-687l489 754h-121q-80 0 -127 -16.5t-77 -54.5q-38 -53 -80 -196h-27l7 305h641l-499 -754h184q105 1 150 28q78 39 125 269h27zM449 1103l274 157q6 3 12 3q7 0 7 -5q0 -6 -11 -18l-282 -291l-281 291q-11 12 -11 17q0 6 7 6q6 0 12 -3z" />
    <glyph glyph-name="florin" unicode="&#x192;" 
d="M559 617l-97 -497q-48 -247 -99 -374q-127 -319 -345 -319q-67 0 -109 31q-39 29 -39 78q0 32 17 56q23 33 62 33q28 0 47 -20q17 -17 17 -40q0 -19 -18 -51q-11 -19 -11 -27q0 -26 51 -26q97 0 156 132q26 59 83 353l131 671h-177l7 38h178l37 191q52 267 181 415
q109 125 237 125q79 0 118 -44q24 -27 24 -66q0 -34 -19 -58q-26 -33 -73 -33q-36 0 -57 23q-16 18 -16 44q0 29 37 58q12 9 12 18q0 24 -37 24q-72 0 -129 -85q-59 -88 -106 -328l-56 -284h178l-8 -38h-177z" />
    <glyph glyph-name="circumflex" unicode="&#x2c6;" 
d="M513 1109l-274 -157q-6 -3 -12 -3q-7 0 -7 5q0 6 11 17l282 292l281 -292q11 -11 11 -16q0 -6 -7 -6q-6 0 -12 3z" />
    <glyph glyph-name="caron" unicode="&#x2c7;" 
d="M512 1103l274 157q6 3 12 3q7 0 7 -5q0 -6 -11 -18l-282 -291l-281 291q-11 12 -11 17q0 6 7 6q6 0 12 -3z" />
    <glyph glyph-name="macron" unicode="&#x2c9;" 
d="M792 1037h-560v61h560v-61z" />
    <glyph glyph-name="breve" unicode="&#x2d8;" 
d="M781 1249q-13 -102 -62 -175q-79 -119 -207 -119q-138 0 -219 136q-40 68 -51 158h23q25 -96 74 -135q63 -49 173 -49q109 0 172 49q49 39 74 135h23z" />
    <glyph glyph-name="dotaccent" unicode="&#x2d9;" 
d="M513 1202q42 0 73 -30q30 -30 30 -74q0 -43 -30 -73q-31 -31 -74 -31t-73 31q-31 30 -31 73q0 44 31 74q30 30 74 30z" />
    <glyph glyph-name="ring" unicode="&#x2da;" 
d="M515 1260q68 0 115 -54q37 -43 37 -103q0 -66 -45 -110q-44 -44 -110 -44q-73 0 -119 54q-36 42 -36 101q0 71 52 116q44 40 106 40zM510 1205q-45 0 -75 -41q-21 -28 -21 -60q0 -44 34 -75q27 -25 63 -25q45 0 75 36q24 28 24 65q0 41 -31 72q-29 28 -69 28z" />
    <glyph glyph-name="ogonek" unicode="&#x2db;" 
d="M833 0q-139 -79 -139 -177t119 -98q43 0 97 20v-28q-79 -43 -163 -43q-71 0 -113 33q-47 38 -47 99q0 116 192 194h54z" />
    <glyph glyph-name="tilde" unicode="&#x2dc;" 
d="M799 1171l19 -10q-54 -93 -97 -122q-49 -32 -98 -32q-35 0 -95 21l-78 27q-56 19 -97 19q-82 0 -129 -64l-18 12q37 75 79 111q50 41 122 41q45 0 104 -21l80 -29q46 -16 95 -16q67 0 113 63z" />
    <glyph glyph-name="hungarumlaut" unicode="&#x2dd;" 
d="M786 1256h120q25 0 25 -14q0 -10 -16 -24l-310 -263q-8 -7 -12 -7q-6 0 -6 7q0 4 3 9zM505 1256h120q25 0 25 -14q0 -10 -16 -24l-310 -263q-8 -7 -11 -7q-7 0 -7 7q0 4 3 9z" />
    <glyph glyph-name="pi" unicode="&#x3c0;" 
d="M1136 958v-113h-304q-34 -86 -44 -117q-24 -81 -23 -133v-328q0 -98 8 -127q15 -59 77 -59q8 0 97 21v-36l-227 -86q-16 -6 -23 -6q-15 0 -36.5 21.5t-37.5 51.5q-24 47 -24 127v319q0 74 25 146q9 24 61 110q37 69 55 95h-350l-4 -242q-3 -187 -42 -462
q-13 -95 -33 -131q-25 -46 -63 -46q-34 0 -58 32q-19 24 -19 53q0 42 23 96q52 113 82 316q9 67 18.5 185.5t12.5 198.5q-120 -1 -189 -41q-66 -41 -137 -135l-25 29l139 186q33 44 84 62q33 13 105 13h852z" />
    <glyph glyph-name="endash" unicode="&#x2013;" 
d="M938 471v-123h-853v123h853z" />
    <glyph glyph-name="emdash" unicode="&#x2014;" horiz-adv-x="1161" 
d="M1161 471v-123h-1161v123h1161z" />
    <glyph glyph-name="quoteleft" unicode="&#x2018;" horiz-adv-x="514" 
d="M226 981q-2 18 -2 31q0 43 28 72q23 24 59 24q43 0 69 -32q25 -31 25 -81q0 -52 -29 -87q-35 -43 -97 -43q-74 0 -124 62q-46 57 -46 144q0 169 188 335l25 -24q-80 -79 -117 -137q-48 -74 -48 -145q0 -83 69 -119z" />
    <glyph glyph-name="quoteright" unicode="&#x2019;" horiz-adv-x="514" 
d="M288 1270q1 -17 1 -30q0 -46 -28 -74q-23 -24 -59 -24q-43 0 -68 32q-25 31 -25 81q0 52 29 86q35 44 97 44q73 0 123 -62q46 -57 46 -143q0 -170 -188 -335l-25 24q80 80 117 137q48 75 48 145q0 83 -68 119z" />
    <glyph glyph-name="quotesinglbase" unicode="&#x201a;" horiz-adv-x="514" 
d="M288 114q1 -17 1 -30q0 -46 -28 -74q-23 -24 -59 -24q-43 0 -68 31q-25 32 -25 82q0 51 29 86q35 44 97 44q73 0 123 -61q46 -58 46 -144q0 -169 -188 -335l-25 23q80 81 117 138q48 75 48 145q0 83 -68 119z" />
    <glyph glyph-name="quotedblleft" unicode="&#x201c;" horiz-adv-x="950" 
d="M662 981q-2 18 -2 31q0 44 28 72q23 24 59 24q44 0 69 -32q25 -31 25 -81q0 -52 -29 -87q-35 -43 -97 -43q-74 0 -123 62q-47 57 -47 144q0 169 188 335l25 -24q-79 -79 -117 -137q-48 -75 -48 -145q0 -83 69 -119zM226 981q-2 18 -2 31q0 43 28 72q23 24 59 24
q43 0 69 -32q25 -31 25 -81q0 -52 -29 -87q-35 -43 -97 -43q-74 0 -124 62q-46 57 -46 144q0 169 188 335l25 -24q-80 -79 -117 -137q-48 -74 -48 -145q0 -83 69 -119z" />
    <glyph glyph-name="quotedblright" unicode="&#x201d;" horiz-adv-x="950" 
d="M288 1270q1 -17 1 -30q0 -46 -28 -74q-23 -24 -59 -24q-43 0 -68 32q-25 31 -25 81q0 52 29 86q35 44 97 44q73 0 123 -62q46 -57 46 -143q0 -170 -188 -335l-25 24q80 80 117 137q48 75 48 145q0 83 -68 119zM724 1270q1 -17 1 -30q0 -46 -28 -74q-23 -24 -59 -24
q-43 0 -68 32q-25 31 -25 81q0 51 29 86q35 44 97 44q73 0 123 -62q46 -57 46 -143q0 -170 -188 -335l-25 24q80 80 117 137q48 75 48 145q0 83 -68 119z" />
    <glyph glyph-name="quotedblbase" unicode="&#x201e;" horiz-adv-x="950" 
d="M288 114q1 -17 1 -30q0 -46 -28 -74q-23 -24 -59 -24q-43 0 -68 31q-25 32 -25 82q0 51 29 86q35 44 97 44q73 0 123 -61q46 -58 46 -144q0 -169 -188 -335l-25 23q80 81 117 138q48 75 48 145q0 83 -68 119zM724 114q1 -17 1 -30q0 -46 -28 -74q-23 -24 -59 -24
q-43 0 -68 31q-25 32 -25 82q0 51 29 86q35 44 97 44q73 0 123 -61q46 -58 46 -144q0 -169 -188 -335l-25 23q80 81 117 138q48 75 48 145q0 83 -68 119z" />
    <glyph glyph-name="dagger" unicode="&#x2020;" 
d="M527 768l69 -735q18 -144 18 -232q0 -89 -25 -136q-28 -54 -77 -54q-48 0 -77 54q-25 46 -25 137q0 84 17 231l69 735l-345 -76q-20 -4 -38 -4q-36 0 -64 15q-47 26 -47 80t47 79q29 16 66 16q18 0 36 -4l344 -80l-63 292q-18 80 -18 161q0 138 97 138q99 0 99 -142
q0 -76 -18 -157l-64 -292l344 80q19 4 37 4q37 0 66 -16q47 -25 47 -79t-47 -80q-29 -15 -65 -15q-17 0 -38 4z" />
    <glyph glyph-name="daggerdbl" unicode="&#x2021;" 
d="M495 833l-57 253q-24 109 -24 159q0 140 97 140q99 0 99 -139q0 -51 -24 -160l-57 -253l343 80q16 4 36 4q38 0 67 -15q47 -25 47 -80q0 -53 -47 -79q-29 -15 -66 -15q-19 0 -37 4l-345 76q15 -148 59 -288q-24 -101 -57 -298l343 80q17 4 36 4q38 0 67 -15
q47 -25 47 -80q0 -53 -47 -79q-29 -15 -66 -15q-19 0 -37 4l-344 75l58 -286q24 -123 24 -159q0 -140 -98 -140t-98 140q0 39 24 159l58 286l-345 -75q-17 -4 -36 -4q-38 0 -66 15q-47 26 -47 79q0 55 47 80q29 15 67 15q19 0 35 -4l344 -80q-32 195 -56 298q22 73 38.5 154
t19.5 134l-346 -76q-18 -4 -36 -4q-38 0 -66 15q-47 26 -47 79q0 55 47 80q29 15 67 15q20 0 35 -4z" />
    <glyph glyph-name="bullet" unicode="&#x2022;" horiz-adv-x="1365" 
d="M689 978q113 0 196 -83q84 -83 84 -201t-84 -201q-82 -83 -200 -83t-200 83q-84 83 -84 200q0 121 84 202q85 83 204 83z" />
    <glyph glyph-name="ellipsis" unicode="&#x2026;" horiz-adv-x="1516" 
d="M254 218q47 0 81 -34t34 -82t-34 -82t-82 -34t-82 34t-34 82q0 49 34 82q35 34 83 34zM759 218q47 0 81 -34t34 -82t-34 -82t-82 -34t-82 34t-34 82q0 49 34 82q35 34 83 34zM1265 218q47 0 81 -34t34 -82t-34 -82t-82 -34t-82 34t-34 82q0 49 34 82q35 34 83 34z" />
    <glyph glyph-name="perthousand" unicode="&#x2030;" horiz-adv-x="2062" 
d="M337 1336q104 0 181 -89q93 -108 93 -253q0 -95 -47 -184q-83 -157 -230 -157q-106 0 -183 90q-93 107 -93 252q0 95 48 184q82 157 231 157zM198 1066v-142q0 -141 35 -189q32 -44 101 -44q76 0 108 53q29 48 29 180v142q0 141 -35 188q-32 44 -102 44q-75 0 -107 -53
q-29 -48 -29 -179zM1041 1324l-614 -1324h-61l615 1324h60zM1076 671q104 0 181 -90q93 -107 93 -252q0 -95 -47 -184q-83 -157 -230 -157q-107 0 -184 90q-93 107 -93 252q0 95 47 184q84 157 233 157zM936 401v-143q0 -141 35 -188q33 -44 102 -44q76 0 108 52
q29 49 29 180v143q0 141 -35 188q-33 44 -102 44q-76 0 -108 -53q-29 -48 -29 -179zM1731 671q104 0 181 -90q93 -107 93 -252q0 -95 -47 -184q-83 -157 -230 -157q-106 0 -183 90q-93 107 -93 252q0 95 48 184q83 157 231 157zM1592 401v-143q0 -141 35 -188
q33 -44 101 -44q76 0 108 52q29 49 29 180v143q0 141 -35 188q-32 44 -102 44q-75 0 -107 -53q-29 -48 -29 -179z" />
    <glyph glyph-name="guilsinglleft" unicode="&#x2039;" horiz-adv-x="535" 
d="M96 409l228 213h103l-227 -213l227 -212h-103z" />
    <glyph glyph-name="guilsinglright" unicode="&#x203a;" horiz-adv-x="535" 
d="M440 409l-228 -212h-103l227 212l-227 213h103z" />
    <glyph glyph-name="franc" unicode="&#x20a3;" horiz-adv-x="1270" 
d="M862 1324l24 -341h-31q-20 109 -76 190q-48 68 -113 92q-55 20 -177 21h-121v-596h21q134 1 170 30q57 45 58 188v35h28v-535h-28v44q1 99 -50 152q-30 32 -78 42q-42 8 -101 8h-20v-616h164v-38h-476v38h148v1248h-149v38h807zM936 768v-199q78 219 207 219q51 0 81 -34
q27 -30 27 -74q0 -36 -16 -62q-20 -36 -63 -36t-62 39q-8 16 -11 60q-3 33 -18 33q-23 0 -51.5 -37.5t-51.5 -99.5q-30 -79 -37 -158q-5 -49 -5 -152v-229h110v-38h-355v38h108v692h-108v38h245z" />
    <glyph glyph-name="trademark" unicode="&#x2122;" horiz-adv-x="1674" 
d="M435 1328v-703h119v-37h-364v37h118v703h-48q-70 -1 -98 -21q-68 -54 -97 -198l-31 4l10 252h651l16 -252l-30 -4q-35 119 -67 162q-44 56 -127 57h-52zM1105 588l-226 696v-659h103v-37h-242v37h95v703h-95v37h252l177 -552l178 552h245v-37h-103v-703h103v-37h-333v37
h103v653l-223 -690h-34z" />
    <glyph glyph-name="Omega" unicode="&#x2126;" horiz-adv-x="1365" 
d="M1414 252l-78 -252h-570v98q99 50 151 89t101 100q151 188 151 445q0 239 -127 417t-359 178q-252 0 -384 -218q-101 -166 -101 -373q0 -138 50 -268t139 -224q72 -76 214 -146v-98h-572l-77 252h39q29 -85 82 -116q43 -26 113 -31q14 0 66 -2l222 -7v11q-101 40 -157 72
t-111 82q-103 95 -159.5 219.5t-56.5 254.5q0 138 65 272t177 229q179 151 452 151q333 0 528 -223q164 -188 164 -423q0 -217 -137 -394q-98 -127 -239 -193q-46 -22 -107 -47v-11l235 8q80 2 111 9q77 19 114 88q8 14 22 51h39z" />
    <glyph glyph-name="partialdiff" unicode="&#x2202;" 
d="M296 1373l21 35q194 -78 334 -212q135 -130 228 -362q82 -204 82 -368q0 -199 -112 -334q-134 -162 -340 -162q-171 0 -294 114q-152 140 -152 361q0 169 93 299q72 99 189 144q81 32 159 32q131 0 210 -67q18 -15 71 -77q-56 165 -119 263q-111 164 -242 254
q-75 52 -128 80zM515 871q-87 0 -157 -63q-48 -44 -84 -135q-45 -113 -45 -227q0 -140 59 -268q42 -90 119 -133q46 -26 100 -26q80 0 157 67q53 46 87 133q43 110 43 238q0 151 -59 265q-76 149 -220 149z" />
    <glyph glyph-name="Delta" unicode="&#x2206;" horiz-adv-x="1365" 
d="M725 1397l630 -1397h-1345l628 1397h87zM631 1199l-415 -925q-29 -65 -29 -98q0 -34 24 -51q17 -13 71 -13h826z" />
    <glyph glyph-name="product" unicode="&#x220f;" horiz-adv-x="1365" 
d="M23 1365h1320v-38h-46q-93 0 -117 -36q-18 -27 -19 -127v-1441q0 -99 19 -127q24 -35 112 -36h50v-38h-545v38h44q93 0 117 36q18 27 19 127v1441q-1 100 -19 127q-24 36 -117 36h-312q-92 0 -117 -36q-18 -27 -19 -127v-1441q1 -100 19 -127q24 -35 112 -36h50v-38h-545
v38h44q93 0 117 36q18 27 19 127v1441q-1 100 -19 127q-24 36 -117 36h-50v38z" />
    <glyph glyph-name="summation" unicode="&#x2211;" horiz-adv-x="1365" 
d="M113 1365h1062v-330h-38q-16 139 -79 202q-44 46 -118 62q-55 11 -145 11h-462l418 -785l-489 -899h539q117 0 181 19q184 55 239 293h38l-68 -416h-1078l500 919z" />
    <glyph glyph-name="minus" unicode="&#x2212;" 
d="M919 693v-62h-814v62h814z" />
    <glyph glyph-name="fraction" unicode="&#x2215;" horiz-adv-x="233" 
d="M458 1324l-614 -1324h-69l615 1324h68z" />
    <glyph glyph-name="periodcentered" unicode="&#x2219;" horiz-adv-x="505" 
d="M255 526q46 0 80 -34t34 -82t-34 -82t-82 -34t-82 34t-34 82q0 49 34 82q35 34 84 34z" />
    <glyph glyph-name="radical" unicode="&#x221a;" horiz-adv-x="1365" 
d="M1331 1686v-59h-242l-379 -1627h-177l-177 734h-322v59h468l161 -690l372 1583h296z" />
    <glyph glyph-name="infinity" unicode="&#x221e;" horiz-adv-x="1366" 
d="M639 581q-57 -89 -99 -136q-90 -100 -212 -100q-125 0 -215 91q-93 95 -93 238q0 160 105 266q95 97 227 97q191 0 346 -250q19 29 24 37q55 85 77 112t54 49q77 54 169 54q135 0 230 -100q93 -99 93 -246q0 -160 -107 -265q-102 -100 -242 -100q-127 0 -245 110
q-62 58 -112 143zM727 744q81 -130 144 -186q104 -93 214 -93q78 0 134 51q72 66 72 172q0 100 -70 159q-74 63 -203 63q-103 0 -177 -45q-47 -28 -78 -69q-37 -50 -36 -52zM604 632q-68 105 -117 160q-94 107 -221 107q-77 0 -128 -52q-65 -66 -65 -164t70 -154
q71 -57 188 -57q92 0 159 40q44 27 75 66q40 51 39 54z" />
    <glyph glyph-name="integral" unicode="&#x222b;" horiz-adv-x="1025" 
d="M605 983v-955q0 -170 -12 -243q-29 -176 -135 -260q-81 -63 -190 -63q-120 0 -193 66q-71 64 -71 151q0 51 34 86q33 33 81 33q45 0 77 -31q32 -30 32 -72q0 -26 -13 -49q-14 -26 -14 -46t11 -36q17 -25 54 -25q68 0 110 89q45 95 45 249v993q0 174 12 246
q29 177 135 261q80 63 190 63q119 0 192 -66q71 -63 71 -151q0 -51 -34 -86q-32 -33 -80 -33q-45 0 -78 31q-31 31 -31 73q0 25 13 48q13 26 13 46q0 26 -16 43q-18 18 -49 18q-72 0 -112 -95q-21 -48 -28 -108q-14 -108 -14 -177z" />
    <glyph glyph-name="approxequal" unicode="&#x2248;" 
d="M944 931l20 -13q-44 -64 -107 -111q-92 -68 -175 -68q-50 0 -147 32q-171 57 -251 57q-79 0 -137 -57q-26 -25 -67 -75l-21 14q47 58 93 100q90 81 202 81q61 0 198 -46q110 -37 166 -37q125 0 226 123zM944 626l20 -13q-45 -65 -107 -111q-92 -68 -175 -68
q-49 0 -147 32q-172 57 -252 57q-77 0 -136 -57q-26 -25 -67 -75l-21 13q45 58 93 101q90 81 202 81q61 0 198 -46q110 -37 167 -37q126 0 225 123z" />
    <glyph glyph-name="notequal" unicode="&#x2260;" 
d="M618 816h301v-62h-330l-86 -184h416v-62h-444l-107 -228l-56 26l94 202h-301v62h330l85 184h-415v62h444l107 228l56 -26z" />
    <glyph glyph-name="lessequal" unicode="&#x2264;" 
d="M932 1232v-48l-708 -467l708 -469v-128l-839 554v10zM93 47h839v-47h-839v47z" />
    <glyph glyph-name="greaterequal" unicode="&#x2265;" 
d="M93 47h839v-47h-839v47zM93 120v48l708 467l-708 470v127l839 -555v-10z" />
    <glyph glyph-name="lozenge" unicode="&#x25ca;" horiz-adv-x="1365" 
d="M683 1419l532 -736l-532 -736l-532 736zM683 1237l-404 -554l404 -555l403 555z" />
    <glyph glyph-name="apple" unicode="&#xf000;" horiz-adv-x="1365" 
d="M983 1416q0 -140 -77 -237q-92 -114 -227 -118q3 147 83 239q91 104 221 116zM1276 935q-63 -48 -94 -86q-71 -88 -71 -199q0 -145 107 -243q39 -36 97 -62q-66 -161 -140 -257q-109 -143 -204 -143q-50 0 -132 38q-49 23 -106 23q-73 0 -120 -17q-14 -6 -58 -24
q-51 -22 -94 -22q-52 0 -111.5 44.5t-111.5 122.5q-172 255 -172 526q0 94 32.5 182t89.5 151q99 108 259 108q65 0 173 -41q56 -21 86 -21t119 33q91 33 155 33q190 0 296 -146z" />
    <glyph glyph-name="fi" unicode="&#xf001;" horiz-adv-x="1068" 
d="M369 792h525v-754h137v-38h-430v38h136v716h-368v-716h136v-38h-472v38h179v716h-179v38h179v221q0 159 82 252q114 130 318 130q148 0 235 -65q66 -49 66 -116q0 -42 -27 -71q-28 -31 -70 -31q-44 0 -73 31q-29 29 -29 76q0 58 44 98q-65 38 -164 38q-225 0 -225 -250
v-313z" />
    <glyph glyph-name="fl" unicode="&#xf002;" horiz-adv-x="1068" 
d="M894 38h157v-38h-450v38h136v1085q0 115 -20 158q-35 74 -145 74q-203 0 -203 -250v-313h194v-38h-194v-716h136v-38h-472v38h179v716h-179v38h179v221q0 160 79 255q105 127 306 127q64 0 140 -23l157 20v-1354z" />
    <glyph glyph-name="glyph172" 
 />
    <glyph glyph-name="glyph262" 
d="M365 1187q38 0 66 -28t28 -67t-28 -67t-67 -28t-67 28t-28 67q0 40 28 67q28 28 68 28zM662 1187q38 0 66 -28t28 -67t-28 -67t-67 -28t-67 28t-28 67q0 40 28 67q28 28 68 28z" />
    <glyph glyph-name="glyph263" 
d="M512 1616l302 100q5 1 9 1q11 0 11 -7q0 -4 -12 -13l-310 -222l-310 222q-11 8 -11 13q0 7 10 7q4 0 9 -1z" />
    <glyph glyph-name="glyph264" 
d="M818 1717q-15 -82 -72 -143q-89 -95 -234 -95q-157 0 -247 109q-46 55 -59 129h28q29 -71 84 -96q75 -35 194 -35q118 0 194 35q54 25 83 96h29z" />
    <glyph glyph-name="glyph265" 
d="M512 1576l-302 -100q-3 -1 -7 -1q-12 0 -12 7q0 4 11 13l310 222l310 -222q12 -9 12 -14q0 -6 -13 -6q-4 0 -7 1z" />
    <glyph glyph-name="glyph266" 
d="M350 1707l265 -210q10 -8 10 -14q0 -8 -8 -8t-13 2l-453 191q-26 10 -26 24q0 15 27 15h198z" />
    <glyph glyph-name="glyph267" 
d="M673 1707h199q27 0 27 -15q0 -14 -26 -24l-453 -191q-6 -2 -13 -2q-8 0 -8 8q0 6 10 14z" />
    <glyph glyph-name="glyph268" 
d="M296 1686q40 0 69 -29t29 -70t-29 -70t-70 -29t-70 29t-29 70q0 42 29 70q30 29 71 29zM729 1686q40 0 69 -29t29 -70t-29 -70t-70 -29t-70 29t-29 70q0 42 29 70q30 29 71 29z" />
    <glyph glyph-name="glyph269" 
d="M831 1670l21 -11q-60 -94 -108 -124q-54 -33 -109 -33q-39 0 -105 21l-87 28q-64 20 -109 20q-52 0 -93 -21q-22 -11 -49 -45l-20 12q42 78 88 114q55 42 135 42q49 0 116 -22l89 -29q52 -17 105 -17q75 0 126 65z" />
    <glyph glyph-name="glyph270" 
d="M341 1686q40 0 69 -29t29 -70t-29 -70t-70 -29t-70 29t-29 70q0 42 29 70q30 29 71 29zM686 1686q40 0 69 -29t29 -70t-29 -70t-70 -29t-70 29t-29 70q0 42 29 70q30 29 71 29z" />
    <glyph glyph-name="glyph271" 
d="M515 1759q68 0 115 -55q37 -42 37 -103q0 -66 -45 -110q-44 -44 -110 -44q-73 0 -119 54q-36 42 -36 102q0 70 52 116q44 40 106 40zM510 1704q-45 0 -75 -41q-21 -28 -21 -61q0 -44 34 -75q28 -25 63 -25q45 0 75 36q24 29 24 66q0 41 -31 72q-28 28 -69 28z" />
    <glyph glyph-name="glyph272" 
d="M513 1693q42 0 73 -30q30 -31 30 -74t-30 -73q-31 -31 -74 -31t-73 31q-31 30 -31 73q0 44 31 74q30 30 74 30z" />
    <glyph glyph-name="glyph273" horiz-adv-x="512" 
 />
    <glyph glyph-name=".ttfautohint" horiz-adv-x="512" 
d="M0 0z" />
    </font>
</defs>
</svg>
